<?xml version="1.0" encoding="utf-8"?>
<!-- Generator: Adobe Illustrator 19.0.0, SVG Export Plug-In . SVG Version: 6.00 Build 0)  -->
<svg version="1.1" id="Layer_1" xmlns="http://www.w3.org/2000/svg" xmlns:xlink="http://www.w3.org/1999/xlink" x="0px" y="0px"
	 viewBox="0 2178 1000 646" style="enable-background:new 0 2178 1000 646;" xml:space="preserve">
<style type="text/css">
	.st0{fill:#FF80A6;}
	.st1{fill:#FBFBFB;}
	.st2{fill:#FBFCFC;}
	.st3{fill:#FDFDFD;}
	.st4{fill:#32383D;}
	.st5{fill:#33393E;}
	.st6{fill:#222D31;}
	.st7{fill:#2C3036;}
	.st8{fill:#293438;}
	.st9{fill:#343B40;}
	.st10{fill:#151D23;}
	.st11{fill:#2E353A;}
	.st12{fill:#60263D;}
	.st13{fill:#FEB2CA;}
	.st14{fill:#FE81A6;}
	.st15{fill:#414047;}
	.st16{fill:#2B3338;}
	.st17{fill:#FFBCD5;}
	.st18{fill:#18282B;}
	.st19{fill:#FE024D;}
	.st20{fill:#4B5256;}
	.st21{fill:#4D1A30;}
	.st22{fill:#474D52;}
	.st23{fill:#3D464A;}
	.st24{fill:#3C4045;}
	.st25{fill:#1E2C2F;}
	.st26{fill:#182026;}
	.st27{fill:#252E33;}
	.st28{fill:#575D61;}
	.st29{fill:#1E3233;}
	.st30{fill:#0A1218;}
	.st31{fill:#062625;}
	.st32{fill:#ECEDED;}
	.st33{fill:#3D4348;}
	.st34{fill:#43484D;}
	.st35{fill:#453440;}
	.st36{fill:#001314;}
	.st37{fill:#F0F1F1;}
	.st38{fill:#DDDFDF;}
	.st39{fill:#FF004D;}
	.st40{fill:#301A28;}
	.st41{fill:#FCFCFC;}
	.st42{fill:#DFA5BB;}
	.st43{fill:#FFC0DA;}
	.st44{fill:#112426;}
	.st45{fill:#1B2328;}
	.st46{fill:#FE004D;}
	.st47{fill:#24000B;}
	.st48{fill:#193736;}
	.st49{fill:#FC014D;}
	.st50{fill:#FF0A51;}
	.st51{fill:#793850;}
	.st52{fill:#FFFFFF;}
	.st53{fill:#F2F2F3;}
	.st54{fill:#2D3338;}
	.st55{fill:#30343A;}
	.st56{fill:#D69AAF;}
	.st57{fill:#967482;}
	.st58{fill:#6C1331;}
	.st59{fill:#B20036;}
	.st60{fill:#F8F8F9;}
	.st61{fill:#F5024C;}
	.st62{fill:#F4F4F5;}
	.st63{fill:#FD004D;}
	.st64{fill:#314E4C;}
	.st65{fill:#FAFAFA;}
	.st66{fill:#F6024C;}
	.st67{fill:#7A7F82;}
	.st68{fill:#FE014D;}
	.st69{fill:#1D0008;}
	.st70{fill:#2B000D;}
	.st71{fill:#472E3C;}
	.st72{fill:#F8AEC6;}
	.st73{fill:#C10039;}
	.st74{fill:#5D142E;}
	.st75{fill:#B40238;}
	.st76{fill:#EBECEC;}
	.st77{fill:#E7E8E8;}
	.st78{fill:#41303C;}
	.st79{fill:#0F0004;}
</style>
<path class="st0" d="M687.5,2179c1.1,0.7,1.7,1.7,2.5,1.9c14.1,4,24.8,11.7,28.8,26.4c1.3,4.5,4.9,5.2,7.9,6.9
	c10.8,6.3,17,14.1,13.4,25.6c-1.5,4.9,0.4,6.4,5.3,7.1c6.8,1.1,13.8,1.5,19.7,5.9c3.8,2.9,6.1,6.6,6.8,11.2c0.5,3.2-0.4,5.3-4.2,4.8
	c-1-0.1-2,0-3,0c-50.9,0-101.8,0-153.5-0.2c-0.9-7.8-1-15.2-1.2-23c-0.4-0.4-0.7-0.6-1.6-0.8c-7.9-0.4-15.3-0.7-22.6-1
	c1.4-3,3.4-6,4-9.2c2.1-12.3,12-19.5,25-15.8c8.2,2.3,15.1-2.3,17.2-10.8c1-4,2.6-7.9,3.9-11.9c2.9-8.8,9.8-13.2,17.3-17
	C664.4,2179,675.7,2179,687.5,2179z"/>
<path class="st1" d="M677,2825c-12.7,0-25.4,0-38.3-0.3c-0.5-0.7-0.8-1.2-1-2c0.2-24.9,0.2-49.4,0.2-73.9c0-17.6-0.1-35.3-0.2-53.2
	c0-0.7,0-1.1,0-2c0.1-33.2,0.1-65.9,0.2-99c1.1-1.2,2.1-2.1,3.4-2.9c0.8,0.1,1.2,0.1,1.6,0.6c0,17.6,0,34.7,0,51.9
	c0.7,0,1.4,0,2.1,0c0-18.4,0-36.7,0.1-55.2c0.1-0.1,0.2-0.3,0.5-0.5c1.1-1,1.9-1.8,2.8-2.6c0.1,0,0.3-0.4,0.6-0.6
	c0.8-0.9,1.3-1.6,1.8-2.3c0,0,0,0,0.3,0c0.4-0.3,0.6-0.7,0.7-1c0,0,0,0,0.3,0.1c0.4-0.3,0.6-0.7,0.7-1c0,0,0,0,0.3,0.1
	c0.4-0.3,0.6-0.7,0.7-1.1c0,0,0,0,0.3,0.1c0.4-0.3,0.6-0.7,0.7-1.1c0,0,0,0,0.4,0.1c1.7-0.3,3.1-0.7,4.6-0.7
	c4.8,5.1,9.5,9.8,13.8,14.9c1.6,1.9,2.7,4.8,2.9,7.4c0.4,5.8-0.1,11.7,0.2,17.5c0.3,5.6-0.3,11.1-0.3,16.7
	c0.4,46.6,0.2,93.2,0.2,139.8C676.9,2791.4,677,2808.2,677,2825 M664.6,2738c-1.8-6.1-3.5-12.3-5.3-18.4c-0.6,0.2-1.2,0.3-1.8,0.5
	c1.9,6.3,3.7,12.6,5.6,19.7c1.4,4.6,2.9,9.1,4.3,13.7c0.6-0.2,1.2-0.3,1.7-0.5C667.8,2748.2,666.3,2743.5,664.6,2738 M668.4,2658.3
	c-0.5,0.9-1.2,1.8-1.4,2.8c-1,5.9-1.8,11.9-2.7,17.8c0.6,0.1,1.2,0.2,1.7,0.3c1-7,2-14.1,3.1-21.5c0-0.2,0.1-0.4,0.1-0.5
	C669.2,2657.6,669.2,2657.9,668.4,2658.3 M665.1,2692.8c0-2.5,0-5,0-7.5c-2.9,8.2-1.4,16.7,0,25.1
	C665.1,2704.9,665.1,2699.3,665.1,2692.8 M674.6,2786.1c0.4-5.8,0.5-11.6-2-17c0,7.6,0,15.3,0,22.9c0.5,0,0.9,0.1,1.4,0.1
	C674.1,2790.4,674.3,2788.7,674.6,2786.1 M673.2,2743.1c-1.6-5.2-3.2-10.5-4.8-15.7c-0.5,0.2-1.1,0.4-1.6,0.5
	c1.8,6.1,3.6,12.2,5.4,18.3c0.5-0.1,0.9-0.2,1.4-0.3C673.5,2745.2,673.5,2744.5,673.2,2743.1z"/>
<path class="st1" d="M234,2825c-12.7,0-25.4,0-38.4-0.5c-0.4-28.9-0.4-57.3-0.4-85.8c0-19.9-0.1-39.9-0.1-60.2
	c0.1-23.3,0.1-46.1,0.1-68.9c0-6-1.1-12.2,2.9-17.6c0,0,0,0.1,0.3,0.3c0.8-0.3,1.3-0.8,1.7-1.3c0,0,0,0,0.3,0c0.4-0.4,0.6-0.7,0.7-1
	c0,0,0,0.1,0.4,0c4.1-3.6,7.8-7.2,11.6-10.6c1.9-1.7,4.1-2.9,4.9,1.2c0.8,4.4,1.5,8.8,2,11.9c0-2.5,0-6.5,0-10.5
	c0.6-0.1,1.2-0.2,1.8-0.4c0.8,2.8,2.3,5.7,2.4,8.5c0.3,10.6,0.1,21.3,0.1,31.9c0,1.3,0.2,2.7,0.4,4c0.5,0,0.9,0,1.4-0.1
	c0-12.5,0-25,0-38.3c3.2,3.4,5.6,5.9,8.1,8.9c0.1,13.5,0.2,26.5,0,39.9c-0.7,4.1-1.2,7.9-1.9,11.9c-0.5,3.1-0.8,5.8-1.1,8.6
	c0.3,0,0.6,0.1,0.9,0.1c0.8-1.4,1.7-2.9,2.4-4c-0.2,55.6-0.2,110.8-0.2,166c0,1,0.1,2,0.1,3.4C234.1,2823.5,234.1,2824.3,234,2825
	 M226.1,2802c-3.5-3.8-7-7.5-10.8-11.6c0.2,1,0.2,2.2,0.8,2.9c5,5.7,10.2,11.3,15.3,16.9c0.2-0.2,0.4-0.3,0.7-0.5
	c-1.3-4.3-2.5-8.6-3.8-12.9c-0.2,0-0.4,0-0.6,0.1c0,1.6,0,3.1-0.5,5C227.1,2802,226.9,2802.1,226.1,2802 M222,2766.8
	c1,6.7,0.7,13.6,4.2,19.7c-0.8-7.2-1.7-14.4-2.5-22.4c0-11.6,0-23.2,0-34.7c-0.5,0-1.1,0-1.6,0
	C222.2,2741.6,222.2,2753.8,222,2766.8 M213.3,2762.3c0-3.9,0-7.8,0-11.8c-0.4,0-0.9,0-1.3,0c-0.1,11.3-1.5,22.7,1.3,35.2
	C213.3,2777.4,213.3,2770.3,213.3,2762.3 M224.6,2708.7c0,0.4,0.1,0.8,0.1,1.2c0.1-0.1,0.4-0.1,0.4-0.3c2.8-6.2,2.9-12.7,3-19.2
	c-0.4-0.1-0.8-0.1-1.2-0.2C226.2,2696.2,225.5,2702.1,224.6,2708.7z"/>
<path class="st2" d="M382,2825c-12.7,0-25.4,0-38.3-0.4c-0.6-0.8-1-1.2-1.2-2.1c0.1-75.5,0.1-150.5,0.3-225.8
	c1.2-1.8,2.2-3.2,3.2-4.7c0,0,0,0,0.4,0.1c0.4-0.3,0.5-0.7,0.6-1.1c0,0,0,0,0.5,0.1c0.8,1.5,1.4,2.9,1.4,4.3c0.1,13.5,0,27,0.1,40.5
	c0,1.2,0.3,2.5,0.4,3.7c0.5-0.1,1-0.1,1.5-0.2c0-1.6,0-3.2,0-4.7c0-11.8,0-23.7,0-35.5c0-4.8-0.9-9.8,2.1-14.3c0,0,0,0,0.4,0.2
	c0.4-0.3,0.5-0.7,0.6-1.2c0,0,0,0.1,0,0.5c0.4,5.7,0.7,11,1.1,16.3c0.1,1.6,0.3,3.2,0.4,4.8c0.5,0,1-0.1,1.5-0.1
	c0-7.8,0-15.7,0-23.6c0,0,0,0,0.4,0c1.1-1,1.9-2,2.6-3c0,0,0,0,0.4,0c2.9-2.2,4.6-0.4,6.6,1.5c2.6,3.1,5,6,7.4,8.8
	c0.4,1.1,1.9,1.5,2.9,2.3c3.4,2.6,4.7,5.9,4.5,10.4c-1.1,20.5,2.2,41.2-2.9,61.6c-0.1,0.4,0.2,0.8,0.6,2c0.9-1.6,1.4-2.5,2.2-3.9
	c0,45.3,0,90.1,0,134.8C381.8,2806.1,381.9,2815.5,382,2825 M368,2653.3c0.8-7.7,1.5-15.4,2.3-23.2c-3.4,7.6-3.7,15.8-4.3,24.8
	c0.1,11.7,0.1,23.4,0,35.9c1.4,13.8,2.1,27.8,7.5,40.9c-1.9-13.9-3.9-27.8-5.7-42.6C367.8,2677.5,367.8,2665.8,368,2653.3
	 M379,2692.4c0-6.1,0-12.3,0-18.1c-3.3,3.3-3.2,26.2,0,29.9C379.1,2701,379.1,2697.2,379,2692.4z"/>
<path class="st3" d="M825,2825c-13,0-26,0-39.2-0.2c-0.3-0.7-0.5-1.1-0.7-2.1c0.1-18.2,0.1-35.9,0.4-53.6c1.4-1.2,2.7-2.2,3.3-3.6
	c2.5-5.8,4.7-11.7,7.2-17.8c2.7-9.1,5.2-17.9,7.8-27.1c0.1-4.2,0.1-8.1,0.1-12c-0.3,0-0.6,0-0.8,0c-0.3,4.1-0.7,8.2-1.1,12.7
	c-2.7,9.1-5.3,17.8-8,26.8c-2.5,5.8-4.8,11.3-7.4,16.9c-0.6,0-0.9,0-1.3-0.5c-0.2-8.5-0.3-16.5-0.3-24.9c0.2-1.8,0.2-3.2,0.6-4.6
	c0.7,0,1.1-0.1,1.8-0.2c2.4-8.8,4.5-17.4,6.6-26.4c-0.4-0.9-0.8-1.4-1.2-1.9c-0.2,1-0.4,1.9-0.6,3.3c-1.8,8-3.6,15.6-5.7,23.2
	c-0.5,0-0.8,0-1.2-0.5c-0.1-8.8-0.2-17.2-0.2-26c0.2-20.5,0.2-40.5,0.6-60.5c1.7,2.9,3,5.8,4.5,8.8c1.8-3.2-0.5-11-3.4-12.1
	c-0.4-0.1-0.9,0.2-1.5-0.1c-0.1-15.8-0.1-31.1,0.2-46.5c0.6-0.6,0.9-1,1.5-1.6c0.5-0.5,0.8-0.9,1.4-1.4c0.4-0.4,0.6-0.6,1-1
	c0.4-0.3,0.6-0.6,1-1c0.4-0.3,0.6-0.6,1.1-1c0.4-0.3,0.6-0.6,1-1c0.4-0.4,0.6-0.6,1.1-1c0.5-0.4,0.8-0.8,1.4-1.2
	c0.9,0.1,2,0.4,2,0.6c0.1,3.8,0.1,7.6,0.1,11.5c0,4.3,0,8.6,0,12.9c0.7,0,1.4,0,2.1,0c0-9.6,0-19.2,0.3-29c1.4-1.7,2.6-3.3,3.7-4.8
	c0,0,0,0.1,0.3,0.4c2.1,0.7,4.3,0.7,5.7,1.7c2.2,1.6,3.8,3.9,5.6,6.4c-0.1,8.9-0.1,17.4-0.1,25.8c0.1,18.6,0.2,37.2,0.3,56.1
	c0.4,0.1,0.7-0.2,1.2-0.9c0.1-26.8,0.1-53.1,0.4-79.3c2.9,3,5.6,5.9,8.1,9.3c-0.1,74.4-0.1,148.3-0.1,222.2c0,1.2,0.2,2.3,0,3.8
	C824.4,2824.2,824.7,2824.6,825,2825 M793.9,2675.9c-0.2,8.5-0.4,16.9-0.8,25.9c0.6,1,1.1,2,1.7,2.9c0.3-0.1,0.7-0.2,1-0.4
	c0-1.3,0-2.5-0.1-4.6c0-8.8,0.1-17.5,0.2-27.1c-0.2-1.1-0.4-2.1-0.5-3.2c-0.5,0-1,0.1-1.5,0.1
	C793.9,2671.4,793.9,2673.2,793.9,2675.9 M791.2,2661.9c0.9-0.4,1.8-0.7,2.7-1.1c-0.3-0.5-0.6-1-0.9-1.6
	C792.3,2659.9,791.7,2660.6,791.2,2661.9 M794,2665.8c-0.5-0.2-1-0.5-1.5-0.7c-0.1,0.7-0.1,1.4-0.2,2.2
	C792.9,2667,793.4,2666.7,794,2665.8 M791.2,2657.6c0.1-0.4,0.1-0.8,0.2-1.2c-0.3,0-0.6,0-0.8,0
	C790.6,2656.8,790.6,2657.2,791.2,2657.6z"/>
<path class="st3" d="M529,2825c-12.7,0-25.4,0-38.4-0.3c0.3-1.4,0.9-2.5,1.8-3.9c1.8-3.6,3.5-7,4.8-10.5c0.4-1-0.4-2.4-0.6-4
	c4.7-2.1,3,2.9,4.9,4.1c1.8,1.1,4.4,3.6,5.3,3.1c1.9-1.1,2.9-3.7,4.2-5.7c-0.5-0.2-0.9-0.5-1.4-0.7c-1.1,1.8-2.3,3.6-3.8,5.9
	c-2.3-3.2-4.1-5.6-5.9-8.5c-0.6-1-1.1-1.6-1.7-2.3c-0.4,1.1-0.9,2.1-1.3,3.4c-0.2,0.5-0.3,0.9-0.8,1.4c-2.2,3.5-4.1,6.8-6,9.6
	c-0.1-15.9-0.2-31.4,0-46.8c0-2.3,1.4-4.5,2.4-7c2.6-5.5,2.6-5.8,0.7-6.6c-1.2,1.4-2.2,2.6-3.2,3.4c-0.1-7.1-0.2-13.8-0.2-20.9
	c0.1-1.5,0.2-2.5,0.5-3.9c0.5-1.1,0.7-1.9,1.1-2.3c0.6,3.4,1.1,6.4,1.5,9.9c0.6,3.7-1.7,7.7,1.6,10.3c0.6-0.1,1.2-0.2,1.7-0.3
	c-0.4-3.4-0.8-6.9-1.2-10.7c-1-4.5-2.1-8.5-3.2-13c-0.6-3.6-1.6-6.7-1.8-9.9c-0.3-7.6-0.2-15.1-0.1-23.2c0.1-8.2,0.2-15.8,0.6-23.5
	c1.4-0.7,2.4-1.4,3.3-2.1c-1.2-1.3-2.5-2.6-3.8-4.4c-0.1-16.8-0.1-33.2,0.1-49.8c0.3-6.6,0.4-12.9,0.5-19.5c1.5-1.9,2.8-3.5,4.2-5.2
	c0,0,0,0,0.3,0c0.4-0.3,0.6-0.7,0.7-1.1c0,0,0,0,0.4,0c3.1-3,5.9-6,8.6-9c0,0,0,0.1,0.3,0.2c0.4,0.1,0.6-0.1,1.1-0.1
	c0.5,15.3,0.6,30.5,0.8,45.7c0.6,0,1.2,0,1.8,0c0-1.6,0-3.2,0-4.7c0-13.5,0.1-27-0.1-40.5c-0.1-3.3,1.2-4.1,4.2-3.6
	c0.1,0.1,0.5,0.1,0.6,0.5c0.9,3,2.3,5.6,2.3,8.2c0.2,20.8,0.1,41.6,0.1,62.4c0,1.6,0.3,3.1,0.4,4.7c0.5,0,1-0.1,1.5-0.1
	c0-22.8,0-45.6,0-69.7c4.4,5.1,7.8,9.1,11.2,13.5c-0.1,38.5,0,76.5-0.2,114.9c-0.1,2.8,0,5.2,0.1,8.1c0,28,0,55.6,0,83.1
	C529.3,2810.7,529.1,2817.9,529,2825 M493,2678.8c0.7,4.9,1.5,9.8,2.1,15.4c0.2,0.8,0.4,1.5,0.7,2.3c0.3,0,0.6-0.1,0.8-0.1
	c0.1-1,0.2-2,0.2-3.7c-0.7-5.3-1.3-10.7-1.9-16.7c-0.6-0.4-1.2-0.8-1.9-1.3C493,2675.8,493,2676.9,493,2678.8 M502.3,2769.6
	c-1.1,9.5-2.2,18.9-3.8,28.7c0,0.7,0,1.5,0,2.2c0.5-0.2,1-0.5,1.8-1.3c1.2-10.1,2.4-20.2,3.8-31.2c0-10,0-19.9,0-29.9
	c-0.5,0-1,0-1.4,0C502.7,2748.4,502.7,2758.7,502.3,2769.6 M514.2,2748c0,14.6,0,29.3,0,44.8c0.4-2.2,0.9-3.7,0.9-5.2
	c0.3-10.6,0.7-21.2,0.8-31.8C515.9,2753.2,515.2,2750.6,514.2,2748 M502.3,2734.5c0.7-2.2,1.4-4.4,2.1-6.6c-0.9-0.1-1.7-0.3-2.6-0.4
	C501.7,2729.8,501.6,2732.1,502.3,2734.5 M503,2722.8c-2.5-1.1-2.5-1-2.1,3.6C501.8,2725.1,502.4,2724.3,503,2722.8 M497.1,2706.4
	c0.7,0.2,1.4,0.5,2.1,0.7c0.2-1.2,0.4-2.4,0.6-3.6c-0.4-0.1-0.7-0.1-1.1-0.2C498.2,2704.2,497.7,2704.9,497.1,2706.4 M497.3,2701.5
	c0.2-1,0.3-1.9,0.5-2.9c-0.5,0-1,0-1.6,0C496.4,2699.5,496.5,2700.5,497.3,2701.5 M499.3,2713.5c0.1-1,0.2-2,0.3-3
	c-0.5,0-1,0-1.5,0.1C498.3,2711.5,498.5,2712.5,499.3,2713.5 M499.1,2718.5c0.5,0.2,1,0.5,1.6,0.7c0-0.7,0.1-1.5,0.1-2.2
	C500.2,2717.3,499.7,2717.5,499.1,2718.5z"/>
<path class="st4" d="M612.1,2741c-22.1,0-44.2,0-67,0c0,27.4,0,54.4,0,81.1c-3.3,1.7-7.2-3.1-9.1,2.4c-1.4,0.4-2.8,0.4-4.6-0.1
	c-0.4-33.4-0.4-66.4-0.5-99.4c0-1.7-1.1-3.4-1.6-5.1c-0.1-2.4-0.2-4.8,0.3-7.8c0.8-1.6,1.4-2.7,1.4-3.7c0-35.9,0.1-71.9,0-107.8
	c0-1.2-1-2.5-1.5-3.7c-3.5-4-6.9-8-11.3-13.1c0,24.1,0,46.9,0,69.7c-0.5,0-1,0.1-1.5,0.1c-0.1-1.6-0.4-3.1-0.4-4.7
	c0-20.8,0.1-41.6-0.1-62.4c0-2.6-1.5-5.2-2.1-8.3c0.5-1,0.7-1.5,1.4-2c1.8,1,3.4,1.8,4.7,3.1c4.1,4.1,8.1,8.3,12.5,12.4
	c0.7-2,1.4-3.8,1.4-5.7c0.1-43.1,0-86.1,0-129.2c0-10.5,0-10.5,10.3-9.4c0,50,0,99.5,0,148.3c1.6,1,2.7,1.6,3.4,2.3
	c-3.3,0.5-4.1,2.2-3.3,5.4c0,25.1,0,49.8,0,74.8c0.2,1.8,0.4,3.2,0.7,5.1c0,3.7,0,7,0,10.6c10.6,0,20.3,0,30.6,0
	c11.5,0,22.5,0,33.5,0.1c0,0.1,0.1,0.3,0,0.5c-0.1,0.6-0.1,0.9-0.6,1.3c-24.7,0.1-48.9,0.1-73.1,0.1c0,14.6,0,28.6,0,42.9
	c2,0,3.6,0,5.2,0c22.5,0,44.9,0,67.4,0c1.7,0,3.4,0.5,5.1,1c0,0.2,0,0.7-0.2,0.8C612.5,2741,612.3,2741,612.1,2741z"/>
<path class="st5" d="M488.3,2825c-0.3-27.8-0.3-55.5-0.3-83.7c-33.4,0-66.3,0-99.7,0c0,26.9,0,53.8,0,80.2c-1.8,1.2-3.1,2-4.3,3.2
	c-0.4,0.3-0.9,0.3-1.7,0.3c-0.4-9.5-0.5-18.9-0.5-28.4c0-44.8,0-89.5,0-134.8c-0.8,1.4-1.3,2.4-2.2,3.9c-0.3-1.2-0.6-1.6-0.6-2
	c5-20.4,1.8-41.1,2.9-61.6c0.2-4.5-1.1-7.8-4.5-10.4c-1.1-0.8-2.5-1.2-2.9-2.3c-2.4-2.8-4.9-5.7-7.4-9.2c-0.1-1.5-0.1-2.3,0.3-3.2
	c0.8,0,1.2,0,1.7,0.4c0.9,0.7,1.7,1,2.7,1.4c0.3,0.2,0.4,0.4,0.4,1c1.4,1.6,2.8,2.8,4.4,4.2c3.7,4.1,7,8,10.1,12.2
	c-0.4,15.3-0.6,30.4-0.6,45.5c0,1.1,1.6,2.2,2.7,3.2c-0.2,0.6-0.8,1.3-1.6,2.2c-0.6,0.6-1.1,1-1.1,1.4c-0.1,12.9-0.1,25.8,0,38.7
	c0,0.9,1.3,1.9,1.9,2.8c0,0,0,0,0,0.5c-0.3,4.8,3,3.5,5.2,3.6c29.8,0.1,59.5,0,89.3,0c1.7,0,3.5-0.2,5.6-0.3c0-8.9,0-17.2,0.1-25.8
	c0.1-0.5,0-0.7,0.2-1c0.2-0.1,0.5-0.2,0.6,0.1c0.4,0.8,0.7,1.4,1,2.3c0.2,1.1,0.2,1.9,0.3,2.7c0,7.7-0.1,15.4-0.6,23.6
	c-0.7,0.5-0.9,0.5-1.6,0.5c-33.7,0-66.9,0-100.1,0c0,8,0,15.4,0,23.2c0,0.6,0,0.8-0.1,1.4c-0.1,6.3-0.1,12.1-0.1,18.2
	c33.9,0,67.3,0,101.1,0c0.6,0.1,0.8,0.1,1.1,0.1c0.1,6.7,0.1,13.4,0.1,20.9c0.7,1.6,1.5,2.3,2.3,3c-0.7,2.3-2.1,4.5-2.1,6.8
	c-0.2,15.5-0.1,30.9-0.1,47.2c0.6,1.9,1.3,3,2,4.2c-0.6,1.1-1.3,2.2-2,3.7C489.6,2825,489.1,2825,488.3,2825 M382.5,2653.6
	C382.5,2653.6,382.4,2653.5,382.5,2653.6z"/>
<path class="st6" d="M241,2739.1c0,27.7,0,55.4,0,82.2c-2,1.2-3.5,2.1-4.9,3.3c-0.5,0.4-0.9,0.4-1.7,0.4c-0.3-0.7-0.2-1.5,0.3-2.7
	c0.8-2.3,1.3-4,1.3-5.7c0-53.7,0-107.4,0-161.2c0-1.8-0.5-3.5-0.8-5.6c-1-0.8-1.9-1.3-2.8-1.8c0.5-3.7,1-7.5,2.1-11.7
	c0.9-1.1,1.4-1.6,1.4-2.2c0.1-11.7,0.1-23.4,0-35.1c0-1-1.2-2-1.8-2.9c-2.4-2.5-4.8-5-8-8.4c0,13.4,0,25.9,0,38.3
	c-0.5,0-0.9,0-1.4,0.1c-0.1-1.3-0.4-2.7-0.4-4c0-10.6,0.2-21.3-0.1-31.9c-0.1-2.9-1.6-5.7-2.4-8.5c-0.6,0.1-1.2,0.2-1.8,0.4
	c0,4,0,8,0,10.5c-0.5-3-1.3-7.5-2-11.9c-0.7-4.1-3-2.8-4.9-1.2c-3.9,3.4-7.5,7-12,10.4c3.9-4.5,8.1-9.4,13.3-12.9
	c2-1.4,7.3-0.9,9.1,0.8c6.1,5.6,11.2,12.1,16.4,18.5c-0.5,0.9-0.8,1.5-0.8,2.2c0,30.7-0.1,61.4,0,92.1c0,1.2,1.1,2.4,2.2,3.7
	c18.1,0.1,35.7,0.2,53.4,0.1c15.1,0,30.3-0.2,45.7-0.3c0.3-0.7,0.4-1.3,0.5-2.4c0-10.2,0-19.9,0-30.1c0.2-21.8,0.2-43.1,0.6-64.5
	c0.6,0,0.9,0,1.3,0c0,75,0,150-0.5,225.3c-0.7-1.5-1.1-3.2-1.1-5c-0.1-26.1-0.2-52.3-0.2-78.7c0.1-3.5,0.1-6.8,0.1-10.5
	c-4.6,0-8.7,0-12.9-0.3c0-0.6,0-0.8,0.5-1.1c4.4-0.1,8.3-0.1,12.1-0.1c0-10.6,0-20.5,0-30.7c-33.4,0-66.5,0-100,0.1
	c-0.8,0.8-1.6,1.4-1.6,2.1c-0.1,12.6-0.1,25.3,0,37.9C239.1,2737.1,240.3,2738,241,2739.1C241,2739.1,241,2739.1,241,2739.1z"/>
<path class="st7" d="M814.7,2586.1c-1.8-2-3.5-4.4-5.6-5.9c-1.4-1-3.6-1-5.7-2.1c4.3-2.4,8.3-2.5,12.1,1.7c4.5,5,9.7,9.5,14.5,14.3
	c0.3,2.6,1,5.2,1,7.8c0.1,28.2,0,56.3,0,84.5c0,1.8,0,3.6,0,5.5c8.3,0.8,16.6-1.1,24.5,1.2c0,0.6,0,1.1-0.1,1.7c-7.9,0-15.7,0-24,0
	c0,8,0,15.3,0,22.6c2.6,0.6,4.9,1.1,7.3,1.6c0,0.5,0,1-0.1,1.6c-2.3,0.3-4.6,0.5-7.3,0.8c0,5.9,0,11.8,0,18.5c8,0,16,0,24.7,0
	c-3,3.1-3,3.1-12.4,3.1c-4.1,0-8.2,0-12.6,0c0,26.3,0,52.6,0,78.7c-1.6,1-2.8,1.8-4.1,2.9c-0.5,0.3-0.9,0.3-1.7,0.3
	c-0.6-0.4-0.9-0.8-0.6-1.8c0.8-2,1.2-3.5,1.2-5c0-72.3,0-144.6,0-216.9c0-1.4-0.9-2.9-1.4-4.3c-2.6-2.9-5.2-5.9-8.2-9.1
	C815.5,2587.1,815.1,2586.6,814.7,2586.1z"/>
<path class="st8" d="M677.3,2825c-0.4-16.8-0.5-33.6-0.5-50.4c0-46.6,0.2-93.2-0.2-139.8c0-5.6,0.6-11.1,0.3-16.7
	c-0.3-5.8,0.2-11.7-0.2-17.5c-0.2-2.5-1.3-5.4-2.9-7.4c-4.3-5.1-9-9.7-13.6-15c0.3-0.7,0.5-1.1,1.1-1.6c2.4,0.8,4.8,1.5,6.4,3
	c3.8,3.5,7.2,7.5,11,11.6c1.4,3.4,3.6,6.4,3.7,9.5c0.5,9,0.2,18.1,0.1,27.3c-0.1,0.7,0,1.3,0.1,2.3c0,8.5,0,16.6-0.2,24.9
	c0,1.1,0.1,1.9,0.3,3.3c0,7.4,0.1,14.4-0.1,21.5c-0.1,0.8-0.1,1.3,0,2.4c0.1,4.2,0.2,7.9,0.3,11.9c0,0.2,0,0.7,0,0.9s0,0.7,0,0.8
	s-0.1,0-0.4,0.1c-0.8,0.8-1.5,1.5-1.5,2.1c-0.1,12.6-0.1,25.2,0,37.8c0,1,1.2,2,2.3,3c13.3,0,26.1,0,39-0.1
	c20.5-0.1,41-0.2,61.6,0.1c0.1,0.6,0.2,0.8,0.2,1c-0.1,0-0.2,0-0.6,0c-6.2,0-12-0.1-17.8,0c-7.9,0.1-15.8,0.4-23.9,0.6
	c-0.5,0.2-0.6,0.2-1.1,0.3c-0.7,0-1.2,0-1.9-0.1c-0.4-0.2-0.6-0.2-1.1-0.5c-4.1-0.1-7.9,0-11.9,0.2c-0.7,0.2-1.1,0.3-1.8,0.4
	c-0.6-0.1-0.9-0.1-1.3-0.2c-0.5-0.2-0.9-0.3-1.8-0.6c-13-0.2-25.5-0.2-38.3,0c-0.7,2.1-1.5,4-1.5,5.8c-0.1,22.9,0,45.8-0.1,68.7
	c0,2.1-1.2,4.2-2,6.5c0,0.8,0.1,1.3,0.1,2.2c0,0.7,0,1.2,0,1.6C678.6,2825,678.1,2825,677.3,2825z"/>
<path class="st9" d="M194.9,2679c0.1,19.9,0.2,39.9,0.2,59.8c0,28.4,0,56.9-0.1,85.8c-0.5,0.5-1,0.5-1.8,0.5
	c-0.3-27.8-0.3-55.6-0.3-84.1c-7.8,0-15.1,0-22.3,0c-5,0-10,0.1-15-0.1c-1.2-0.1-2.4-1.4-3.2-2.4c13.7-0.2,27.1-0.2,40.5-0.2
	c0-3.9,0-7.9,0-12.4c-3.8,0-7.3,0-10.8,0c0-0.4,0-0.9,0-1.3c3.6-0.2,7.2-0.4,10.8-0.6c0-3.7,0-7,0-11c-9.4,0-18.3,0-27.3,0
	c0-0.4,0-0.9,0-1.3c9.1,0,18.3,0,27.3,0c0-5.6,0-10.5,0-15.7c-12.8,0-25.3,0-37.7,0c-1.1,0-2.1,0.7-3.2,1c-0.3-2.9,1.4-3.1,3.7-3.1
	c10.3,0.1,20.6,0,30.9,0c1.8,0,3.6,0,6.3,0c0-4.9,0-9.5,0.3-14.6C194.1,2679,194.5,2679,194.9,2679z"/>
<path class="st10" d="M529.3,2720.5c0.6,1.2,1.6,2.9,1.7,4.6c0.1,33,0.1,65.9,0.1,99.4c-0.4,0.5-0.9,0.5-1.7,0.5
	c-0.2-7.1-0.1-14.3-0.1-21.4C529.3,2776.1,529.3,2748.5,529.3,2720.5z"/>
<path d="M679.5,2825c-0.5-0.4-0.5-0.8-0.1-1.6c0.7-0.4,1.2-0.4,1.9-0.4c0.7,0,1.2,0,2.1,0c33.5,0,66.6,0,99.7,0.3c0,0.8,0,1.3,0,1.7
	C748.6,2825,714.3,2825,679.5,2825z"/>
<path class="st11" d="M340.7,2738.9c0.1,26.1,0.2,52.3,0.3,78.4c0,1.8,0.5,3.5,1,5.4c0.7,0.6,1.1,1,1.2,1.8c-1,0.4-1.8,0.4-2.9,0.4
	c-0.4-25.8-0.4-51.6-0.4-77.4c0-2.5,0.2-5,0.5-8.1C340.7,2739,340.7,2738.9,340.7,2738.9z"/>
<path class="st12" d="M783.3,2825c-0.3-0.5-0.3-0.9-0.3-1.8c0-0.4,0.2-0.4,0.6-0.3c0.8,0.2,1.1,0.2,1.4,0.3c0.2,0.5,0.4,0.9,0.3,1.6
	C784.6,2825,784.1,2825,783.3,2825z"/>
<path class="st13" d="M240.2,2595.9c-5.5-6.2-10.7-12.7-16.7-18.3c-1.9-1.7-7.1-2.2-9.1-0.8c-5.2,3.5-9.4,8.4-13.6,13
	c0.4,0.2,0.3,0.2-0.1,0c-0.4,0.3-0.5,0.8-0.6,1.2c0,0,0-0.1-0.3-0.4c-0.7,0.3-1.2,0.8-1.7,1.4c0,0,0-0.1-0.3-0.1
	c-1.6,1.3-2.9,2.7-4.6,4.3c-0.6,8.2-1,16.2-1.1,24.2c-0.1,18.6-0.1,37.1-0.1,55.7c-8.6-8.7-13.9-19.4-18.9-30.3
	c-5.8-12.8-8.7-26.4-10.9-40.1c-1.3-8.2-2-16.7-2-25c0-4.6-1.4-9.1-0.4-14c1-4.8,0.1-10,0.2-14.9c0.8-19.6,2.6-39.2,6.8-58.4
	c4.1-18.9,7.7-38,12.3-56.8c2.6-10.9,6.6-21.5,9.9-32.3c8.5-28,19-55.3,33-81c13.4-24.5,27.6-48.4,48.1-67.9c3.2-3,6.6-5.7,10.2-8.8
	c11.3,6.9,22.1,14,33.2,21.4c1,0.7,1.8,1.2,2.9,1.9c1.1,0.7,1.9,1.3,3,2c1.1,0.8,2,1.3,3.1,2.1c1,0.7,1.8,1.2,2.9,1.9
	c1.1,0.8,2,1.3,3.1,2.1c1.1,0.7,1.9,1.2,3,2c1,0.7,1.8,1.2,2.9,2c9.1,6.1,18,12,27.5,18.3c2.2-5.4,4.1-10.3,6.3-15.4
	c4-9.1,7.5-18.1,11.6-26.8c1-2.3,3.4-4.4,5.6-5.5c4.9-2.5,10.2-4.4,16.2-7c-3-0.8-5-1.3-7.3-2c-0.6-0.2-1-0.3-1.8-0.4
	c-2.5-0.4-4.6-0.7-7-1.2c-4.8-0.9-9.2-1.7-13.6-2.3c-6.7-0.9-13.4-1.7-20.4-2.6c-3.3-0.4-6.3-0.9-9.4-1.6c-1.7-0.7-3.2-1.3-4.7-1.6
	c-6.6-1.3-13.2-2.6-19.8-3.8c5.4-1,10.7-2.6,16.1-2.9c25-1.4,48.7,4.7,71.6,14c27.2,10.9,52.2,26.1,78,39.8c0.4,0.2,0.9,0.3,1.5,0.8
	c0.1,0.4-0.1,0.5-0.6,0.4c-12.5-0.1-24.6-0.1-36.7,0c-1.6,0-3.2,1-5.1,1.8c-19.8,3.1-35.9,11.2-47.5,28.3
	c-6.4,9.4-10.6,18.9-12.1,30.2c-0.7,4.8-4.1,2.3-5.8,2c-5.5-1-10.8-2.7-16.5-4.2c-6.1-1.5-11.9-2.8-18-4.3c-2.2-0.5-4.1-0.9-6.2-1.4
	c-0.6-0.3-1-0.3-1.8-0.5c-9.2-2.2-18.1-4.3-27.2-6.5c-0.6-0.3-1-0.3-1.8-0.5c-3-0.7-5.6-1.3-8.5-2c-3.7-0.9-7.1-1.6-10.7-2.6
	c-0.6-0.3-1-0.3-1.8-0.5c-2.5-0.5-4.6-0.9-6.7-1.3c-0.5,0.7-0.9,1.4-1.4,2.1c1.4,0.8,2.8,1.6,4.4,2.7c3.7,3.7,7.3,7.2,11,11.1
	c0.2,13.8,0.4,27.1,0.4,40.9c-0.1,3.2-0.1,5.9-0.1,9.5c7.4-1.5,14.1-2.8,21.2-4.1c0.9-0.2,1.4-0.4,2-0.5c0.4,0.1,0.6,0,1.2-0.2
	c1.2,0,2.1,0,2.9-0.1c20.9-4,41.8-8,62.8-11.5c0.1,21.5,0.1,42.6-0.3,63.8c-31.9,0.2-63.3,0.2-94.8,0.2c-1.8,0-3.6,0.2-5.8,0.3
	c-0.9,0.1-1.5,0.3-2.1,0.5c0.3,0.3,0.5,0.7,0.8,1.5c0,3.1,0.1,5.7,0.1,8.6c0,0.4,0,0.6,0,1c0.3,0.5,0.6,0.7,1.2,1.2
	c1,0.3,1.6,0.5,2.3,0.5c26.9,0,53.7,0,80.6,0c1.3,0,2.5-0.5,4.2-0.8c1.8,0,3.2,0,4.9,0.3c2.1,0.4,4,0.5,5.5,0.8
	c-12.8,0.6-20.5,6.8-23.1,19.1c-0.1,0.6-0.4,1.3-0.6,1.9c-2.4,7-6.6,9.6-13.7,7.5c-4.6-1.4-8.6-0.4-11.3,2.9
	c-2.3,2.8-3.6,6.6-4.9,10.1c-2,5.3-4.8,7.2-10.2,5.9c-1.5-0.3-2.9-0.9-4.3-1.4c-8.8-3.3-16.5-1.7-22.2,5.9c-3,3.9-6.5,4.7-10.5,3.4
	c-8.3-2.6-13.6,2.2-19.9,7c65.4,0,129.9,0,196.3,0c-2.3-3.8-3.4-7.6-5.9-9.2c-3.8-2.3-8.4-3.5-12.9-4.4c-3.5-0.7-5.7-1.6-5.4-5.5
	c0.9-11.1-0.4-13.5-10.3-18.8c-1.4-0.7-3.3-1.8-3.6-3c-3-11.1-11-16.6-20.9-20.1c1.3-0.4,2.2-0.7,3.2-0.7c35.7,0,71.3,0.1,107-0.1
	c4.6,0,4.6,2.3,4.6,5.5c-0.1,38.5,0,77-0.1,115.5c0,2.1-0.6,4.2-1,6.7c-1.1,1.3-2.1,2.2-3.4,3.3c-0.4,0.5-0.5,0.9-0.5,1.3
	c0,0,0-0.1-0.3-0.2c-3.1,3-5.9,6.1-8.6,9.2c0,0-0.1-0.1-0.4-0.2c-0.4,0.3-0.5,0.8-0.6,1.3c0,0,0-0.1-0.3-0.4
	c-2.1,1.9-3.9,4.1-5.7,6.8c0,5.8-0.1,11.2-0.4,16.6c-0.8,0.7-1.2,1.3-1.9,2.2c-0.1,3.2,0.3,6.1,0.3,9.1c0.1,12.2,0,24.5,0.1,36.7
	c0,1.7,0.7,3.4,1.1,5.1c0,0.2,0,0.4-0.5,0.8c-23.5-1.2-45.6,2.9-67.2,10.2c-10.9,3.7-21.7,8-32.5,12c0,0,0,0-0.2-0.5
	c-0.2-14.5-0.3-28.6-0.3-42.6c0.5-0.7,1-1.3,0.9-2.3c-0.7-5.8-0.9-11.3-0.9-16.8c-0.2-10.6-0.3-21.2-0.5-31.9
	c-3.4-3.9-6.8-7.9-10.5-12.3c-1.7-1.7-3-3-4.2-4.3c0-0.2-0.1-0.4-0.6-0.9c-1.1-0.7-1.8-1.1-2.6-1.5c-0.4,0-0.9,0-2-0.1
	c-6-0.2-6-0.2-6.9,2.1c0,0,0,0-0.3-0.3c-1.1,0.9-1.9,2.1-2.7,3.3c0,0,0,0-0.3-0.3c-1.1,0.6-1.9,1.5-2.8,2.4c0,0,0-0.1-0.3-0.1
	c-0.4,0.3-0.5,0.7-0.6,1.1c0,0-0.1,0-0.4-0.1c-2.1,2-3.8,4.1-5.6,6.1c0,0-0.1,0-0.4-0.2c-0.4,0.3-0.5,0.7-0.6,1.2c0,0-0.1,0-0.3-0.3
	c-1.7,1.6-3.2,3.4-4.7,5.2c-0.1,21.3-0.1,42.7-0.5,64.3c-1-0.2-1.7-0.7-2.3-1.2c0.3,2,0.6,3.7,0.6,5.5c0.1,7.3-0.2,14.7,0.1,22
	c0.2,4.5-1.3,5.6-5.6,5.6c-30.8-0.2-61.6-0.1-92.6-0.6c-0.1-30.7-0.1-61-0.2-91.3C240.8,2599.5,240.4,2597.7,240.2,2595.9
	 M301.8,2392.1c-0.6,0.4-1.1,0.9-1.7,1.3c0.1,0.3,0.2,0.6,0.4,0.9c8.2-1.7,16.4-3.3,24.6-5c-0.1-0.6-0.2-1.1-0.3-1.7
	C317.3,2389.1,309.9,2390.6,301.8,2392.1 M312,2278.7c4.4,2.7,8.9,5.4,13.3,8c0.3-0.5,0.5-1,0.8-1.4c-5.4-3.3-10.7-6.6-16.1-9.9
	c-0.3,0.4-0.5,0.8-0.8,1.2C310,2277.2,310.7,2277.7,312,2278.7z"/>
<path class="st11" d="M315.2,2382.2c-0.5,0.2-1,0.4-1.8,0.2c-0.4-0.7-0.4-1.1,0-1.6c2.9-0.6,5.5-1.2,8-1.7
	c24.2-4.5,48.3-9,72.7-13.2c3.9-0.2,7.7-0.4,11.3-1.2c1.3-0.3,2.4-1.8,4-2.8c4.7-0.7,9.1-1.3,13.4-2c-0.1-0.7-0.1-1.4-0.2-2
	c-4.5-1-8.8-3.5-14-0.8c-1.1-0.1-1.8-0.2-2.6-0.7c-0.7-2.1-1.1-4.8-2.2-5.2c-4.8-1.5-9.8-2.3-15-3.6c-1.4-0.1-2.6,0-4,0.2
	c-0.4,0-0.6-0.1-0.8-0.5c-0.3-2-0.7-3.7-1-5.3c1.4-11,5.6-20.6,12-30c11.6-17.1,27.6-25.1,47.9-28.2c8.9-0.2,17.1-0.3,25.7-0.3
	c6.4-0.1,12.3-0.3,18.2-0.4c22.4,0,44.9-0.1,67.9,0.1c0.5,0.8,0.3,1.4-0.3,2.1c-29.4,0-58.4,0-87.4,0c2.6,1.8,5.4,2.6,8,3.8
	c24.3,11.2,37.5,30.3,40.4,57.2c0.1,2.6,0.3,4.7,0.4,6.9c0,25.5,0,51,0,76.4c0,1.8-0.3,3.6-0.8,5.4c-36.5,0-72.7,0-108.8,0
	c-1.7,0-3.5,0.6-5.6,1c-6.5,0-12.5-0.1-18.9-0.4c-25.7-0.4-51.1-0.4-76.5-0.6c-7.8,0-15.6-0.2-23.4-0.3c1.8-0.1,3.6-0.4,5.4-0.4
	c31.4,0,62.9,0,95.1-0.4c1.1-0.9,1.6-1.5,1.6-2.1c0.1-19.6,0.1-39.3,0-58.9c0-1-1.1-2.1-1.7-3.1c-20.9,4-41.8,8-62.8,12
	c-0.8,0.2-1.6,0.1-3.1,0.1C315.6,2382.1,315.4,2382.1,315.2,2382.2z"/>
<path class="st11" d="M610.1,2246c0.1,7.5,0.3,15,0.7,22.8c0.3,3.6,0.3,6.9,0.3,11.4c-14.6,0-28.7,0-42.9,0c0,0.7-0.1,1.4-0.1,2.1
	c1.4,0.2,2.8,0.6,4.2,0.7c6.8,0.1,13.7,0.3,20.5,0c22.1-1.1,40.9,6.2,56.8,22.3c1,1.9,1.7,3.3,2.2,5c-1.2-0.6-2.2-1.5-3.1-2.5
	c-9.4-10.7-20.9-18.7-34.9-20.4c-15.4-1.9-31.1-1.3-46.7-2.2c-0.5-1.6-0.9-2.8-1.5-4.4c-0.1-1.2,0.1-1.9,0.5-2.9
	c0.5-10.2,0.7-20.3,0.7-30.4c0-0.4-0.9-0.8-1.4-1.4c-0.1-0.2-0.3-0.6,0-0.9c1.4-0.2,2.4-0.2,3.8-0.2c0.8-0.3,1.3-0.6,1.8-1
	c4.7,0,9.3,0,14.4,0c7.9,0.3,15.2,0.6,23.2,1.2C609.5,2245.7,609.8,2245.8,610.1,2246z"/>
<path class="st1" d="M152,2697.6c1.1-0.8,2.2-1.5,3.2-1.5c12.5-0.1,24.9,0,37.7,0c0,5.2,0,10,0,15.7c-9.1,0-18.2,0-27.3,0
	c0,0.4,0,0.9,0,1.3c9,0,18,0,27.3,0c0,3.9,0,7.3,0,11c-3.6,0.2-7.2,0.4-10.8,0.6c0,0.4,0,0.9,0,1.3c3.5,0,7,0,10.8,0
	c0,4.5,0,8.6,0,12.4c-13.4,0-26.8,0-40.5-0.2C152.1,2724.6,152,2711.3,152,2697.6z"/>
<path class="st14" d="M568.9,2244.9c-1,0-2.1,0-3.8,0c-1.5-0.1-2.3-0.3-3.1-0.4c-6.9-0.2-6.9-0.2-6.9,6.5c0,5.9-0.1,11.8-0.1,17.8
	c-20.8,0-41.6,0-62.4,0c6.1-9.7,20.6-15,33.1-11.5c3.7,1,6.1,0.5,8.7-2.3c3-3.3,6.5-6.1,9.7-9.2c7.5-7.3,16.1-5.2,24.8-2.1
	C569.1,2244.6,569,2244.8,568.9,2244.9z"/>
<path class="st15" d="M555,2269.3c0-6.4,0.1-12.3,0.1-18.2c0-6.7,0-6.7,6.9-6.5c0.8,0,1.6,0.3,2.7,0.6c0.3,0.2,0.6,0.6,0.6,0.8
	c0,0.2-0.1,0.2-0.6,0.2c-2.9,0.3-5.3,0.5-8,1.1c-0.1,7.1,0,13.9,0.2,21.1c0,5.8,0,11.2-0.4,16.9c-0.4,17.9-0.5,35.5-0.5,53.1
	c0,0.2,0.6,0.4,1.4,0.7c3,0,5.6,0,8.3-0.1c0.5,0,0.8,0,1.3,0.4c2,2.5,3.8,4.6,5.8,7.2c1.9,7.6-0.7,13.5-6.7,16.2
	c-5.4,2.4-12.3,0.7-15.1-4.9c-1.6-3.3-1.2-7.6-1.4-11.7c2-2.9,5.2-5.5,5.3-8.2c0.4-17.6,0.1-35.1,0-52.7c0.2-0.6,0.3-1.3,0.3-2.1
	C555.1,2278.6,555.1,2274.2,555,2269.3z"/>
<path class="st16" d="M313.4,2267.7c-10.9-7.1-21.8-14.3-32.9-21.5c-2.8-1.7-5.4-3.3-8.3-5.3c-0.6-0.6-0.9-0.8-1.2-0.8
	c0,0,0,0,0-0.3c-0.1-1.1-0.1-2-0.2-2.8c-1.1,0.5-2,0.8-2.8,1.1c0,0,0,0-0.1-0.2c-0.4-0.4-0.7-0.6-0.9-0.8c0,0-0.5,0-0.8-0.3
	c-0.6-0.5-0.8-0.7-1.1-0.8c-0.9-0.5-1.8-1-2.5-1.9c0.3-1.7,0.6-3,1.1-4.2c27.5,14.7,54.6,29.4,81.6,44.2c2.7,1.5,4.4,1.6,6.8-0.6
	c5.1-4.7,10.6-9,16.2-13.5c0.4,0,0.6,0,1.3,0c0.9,0,1.3,0,1.7,0.3c-0.1,0.9-0.3,1.5-1,1.9c-0.8-0.2-1.1-0.1-1.6,0.1
	c-0.5,0.2-0.6,0.5-0.6,0.8c0,0,0-0.1-0.3,0c-5.3,4.3-10.4,8.3-15.1,12.8c-2.5,2.4-4.4,2.3-7.4,0.7c-21.9-12-43.8-23.9-65.8-35.7
	c-1.5-0.8-3.1-1.3-4.7-2c-0.1,0.2-0.2,0.4-0.3,0.6c13.4,9,26.8,18,39.9,27.3C313.8,2267.2,313.6,2267.5,313.4,2267.7z"/>
<path class="st11" d="M263.2,2229.8c-0.2,1.2-0.5,2.5-1,4c-7.5-4.4-14.6-9.1-22.3-14.1c4.7-3.6,9.2-1,13.1-0.4
	c20.2,3.1,40.3,6.7,60.3,10.4c-1.9,0.6-3.6,0.9-5.6,1.3c-0.4,0-0.6-0.1-0.9-0.4c-1.4-0.3-2.6-0.4-4.3-0.4c-5-0.7-9.6-1.6-14.2-2.1
	c-1.4-0.1-2.9,1.3-4.5,2c-0.1,0.6,0.1,1.1,0.2,1.9c-0.1,0.6-0.1,0.8-0.5,1c-8.6-2.5-16.9-5-25.5-7.7c-0.8-0.2-1.4-0.1-1.9-0.1
	c0.5,0.4,1,0.7,1.7,1.3c0.8,0.7,1.5,1.1,2.2,1.9C261.2,2229.1,262.2,2229.5,263.2,2229.8C263.2,2229.9,263.2,2229.8,263.2,2229.8z"
	/>
<path class="st6" d="M193.5,2596.1c1.3-1.4,2.6-2.8,4.2-4.1c-3.8,5.4-2.6,11.6-2.6,17.6c0,22.8,0,45.6-0.1,68.9
	c-0.5,0.5-0.9,0.5-1.6,0.5c-0.3-0.2-0.4-0.3-0.3-1.2c0.1-3.7,0.2-6.7,0.2-9.7C193.4,2644.1,193.5,2620.1,193.5,2596.1z"/>
<path class="st17" d="M193.1,2596.3c0.3,23.8,0.3,47.9,0.2,71.9c0,3,0,6-0.2,9.4c-0.5,0-0.8-0.4-1.1-1.2c0-18.9-0.1-37.4,0-56
	C192.1,2612.5,192.5,2604.5,193.1,2596.3z"/>
<path class="st4" d="M308,2231c1.7-0.3,3.5-0.6,5.6-1c1.4,0,2.4,0,3.7,0c7,1.3,13.6,2.5,20.1,3.9c1.6,0.3,3.1,0.9,4.5,1.7
	C330.5,2234.3,319.2,2232.6,308,2231z"/>
<path class="st13" d="M486.6,2283c-5.7,0.3-11.6,0.4-17.6,0.3c5.2-0.6,10.5-0.9,15.7-1.2c0,0,0.2-0.1,0.3-0.2
	C485.5,2282.3,485.9,2282.6,486.6,2283z"/>
<path class="st11" d="M268.1,2238.3c0.7-0.6,1.5-0.9,2.7-1.4c0.1,0.8,0.1,1.6,0.2,2.8C270.1,2239.5,269.2,2239,268.1,2238.3z"/>
<path class="st15" d="M569.2,2245c-0.2-0.2-0.1-0.4,0-0.8c0.4-0.3,0.8-0.3,1.5-0.2C570.5,2244.3,570,2244.7,569.2,2245z"/>
<path class="st11" d="M271.1,2240.2c0.2-0.1,0.5,0,0.8,0.5C271.6,2240.9,271.4,2240.7,271.1,2240.2z"/>
<path class="st11" d="M267.1,2237.2c0.2,0,0.4,0.1,0.8,0.6C267.7,2237.8,267.4,2237.7,267.1,2237.2z"/>
<path class="st11" d="M265.1,2236.2c0.2-0.1,0.5,0,0.8,0.5C265.6,2236.9,265.3,2236.7,265.1,2236.2z"/>
<path class="st13" d="M652.1,2309.9c-0.8-1.4-1.5-2.8-2.2-4.5c20.5-1.2,40.6,0.6,60.1,7.6c20.7,7.5,39.3,18.1,55.7,33
	c16.7,15.3,29.7,33.2,40.4,52.9c13.3,24.7,22.2,50.8,26.9,78.4c1.9,11.3,3.1,22.7,4,34.1c0.8,9.6,1.5,19.2,0.9,28.7
	c-0.8,12.8-2.9,25.6-4.7,38.4c-0.7,4.9-2.1,9.8-3.1,15.1c-4.9-4.3-10-8.8-14.6-13.9c-3.7-4.1-7.7-4.1-12.4-2c0,0.4-0.1,0.3-0.4,0.3
	c-1.8,1.3-3.2,2.7-5,4.2c-1.7,1.4-3.2,2.7-4.7,3.5c-3.1-7.7-5.5-15.5-9.3-22.4c-6.2-11.2-7.9-22.4-3.6-34.5c1.1-3.1,1.8-6.4,2.9-9.6
	c3.4-10,1.9-19.4-3.3-28.3c-13.4-22.8-14.6-24.1-7.1-52.8c2.5-9.7,0.6-18.5-4.5-26.8c-1.5-2.4-3-4.9-4.7-7
	c-7.3-8.9-11-19.2-12.4-30.6c-0.9-7.1-2.2-14.2-3.9-21.1c-0.6-2.5-3.2-4.5-4.9-6.7c-1.7,2-4.2,3.8-5.1,6.1c-1.8,4.6-3,9.5-3.8,14.4
	c-2.3,14.1-6.1,27.5-15.2,39.1c-8.4,10.8-9.8,23-4.9,35.9c5.8,15,4.7,29.3-4.7,42.7c-0.5,0.7-0.8,1.5-1.2,2.2
	c-6,10.2-8.1,20.9-3.2,32c7.6,17.1,6.6,33-3.6,48.9c-6.1,9.5-6.6,20-2.3,30.7c1.5,3.9,2.7,7.9,4.1,11.8c3.3,9.3,2.7,18.3-1.6,27.1
	c-1.9,3.9-3.7,7.8-5.6,11.7c-4.4,8.8-5.3,17.7-1.9,27.1c2.2,6.1,4.2,12.3,5.8,18.5c-3.2,0-6,0-8.8-0.5c-2.3-4.6-4.4-8.9-6.7-13.4
	c0-0.2-0.3-0.5-0.3-0.5c0-6.9-0.1-13.9,0.1-21.6c0.2-0.9,0.2-1.1,0.4-1.6c3.7-9.5,5.8-18.8-0.2-28.1c-0.2-0.4-0.3-0.5-0.4-0.6
	c0-9.1,0.3-18.1-0.2-27.2c-0.2-3.1-2.3-6.1-3.6-9.9c3.8-10.8,1.2-20-4.6-28.5c-6.6-9.6-8.4-19.8-4.5-30.8c4.3-12,1.9-22.6-6-32.2
	c-5.4-6.5-8.1-14-9.2-22.3c-0.9-6.2-2.2-12.5-3.6-18.6c-0.3-1.4-2.1-3.1-3.5-3.4c-0.8-0.2-2.8,1.7-3.3,3.1c-1.3,3.6-2.5,7.3-3.1,11
	c-2,12-5.4,23.2-12.9,33.1c-5.5,7.1-6.7,15.6-3.4,24.2c5,12.9,4,24.9-3.9,36.5c-5.4,7.9-6.3,16.7-2.5,25.7c0.8,2,1.4,4.1,2.1,6.1
	c2.9,8.1,3.1,16.3-1.6,23.6c-8.4,12.8-8.7,25.6-2.3,39.3c3.4,7.2,2.4,14.6-1,21.7c-2.3,4.8-4.2,9.8-6.3,14.6c-11,0-22,0-33.7-0.4
	c-10.2-3.8-19.8-7.3-29.4-11.2c-0.5-1.8-1.1-3.1-1.6-4.5c0-24.7-0.1-49.3,0.2-74.5c1.4-2.1,2.4-3.7,3.4-5.3
	c-1.1-0.6-2.1-1.2-3.7-2.2c0-48.8,0-98.3,0.5-148.3c40.8-0.5,81-0.6,121.7-0.7c0.8-1.9,1.5-3.8,1.5-5.6c0.1-30.9,0.1-61.7,0-92.6
	c0-3.8-0.5-7.6-1.1-11.3c-0.2-0.9-1.7-1.6-2.7-2.8c-1.4-3.4-2.6-6.5-3.8-10c-1.8-3.5-3.5-6.6-5.2-9.6c0,0,0.1,0,0.3-0.3
	C654.5,2312.9,653.3,2311.4,652.1,2309.9C652.1,2309.9,652.1,2309.9,652.1,2309.9z"/>
<path class="st11" d="M845.7,2718.4c3.1-0.2,5.9-0.2,10-0.2C851,2722,846.9,2721.7,845.7,2718.4z"/>
<path class="st18" d="M610.1,2245.7c-0.3,0.1-0.6-0.1-1-0.5C609.4,2245.1,609.7,2245.3,610.1,2245.7z"/>
<path class="st19" d="M609.1,2694.1c2.1-5,4-10,6.3-14.7c3.5-7.2,4.4-14.6,1-21.7c-6.4-13.7-6-26.5,2.3-39.3
	c4.8-7.3,4.5-15.5,1.6-23.6c-0.7-2-1.3-4.2-2.1-6.1c-3.8-9-2.9-17.8,2.5-25.7c8-11.6,8.9-23.6,3.9-36.5c-3.3-8.6-2.1-17,3.4-24.2
	c7.6-9.9,10.9-21.1,12.9-33.1c0.6-3.7,1.8-7.5,3.1-11c0.5-1.3,2.5-3.3,3.3-3.1c1.4,0.3,3.2,2,3.5,3.4c1.5,6.1,2.8,12.3,3.6,18.6
	c1.2,8.3,3.9,15.8,9.2,22.3c7.9,9.6,10.3,20.2,6,32.2c-3.9,11-2.1,21.2,4.5,30.8c5.8,8.5,8.4,17.6,4.4,28.1
	c-3.7-3.4-7.1-7.4-10.9-10.9c-1.6-1.5-4.1-2.2-6.8-3.1c-2.4,0.9-4.1,1.7-5.9,2.5c0,0-0.1-0.1-0.4-0.2c-0.4,0.3-0.5,0.7-0.6,1.2
	c0,0-0.1-0.1-0.4-0.2c-0.4,0.3-0.5,0.8-0.6,1.2c0,0-0.1-0.1-0.4-0.2c-0.4,0.3-0.5,0.8-0.6,1.2c0,0,0-0.1-0.4-0.2
	c-0.4,0.3-0.5,0.8-0.6,1.2c0,0,0-0.1-0.4-0.2c-0.8,0.8-1.2,1.7-1.7,2.7c0,0-0.2,0.3-0.4,0.1c-0.4-0.2-0.6-0.2-1-0.6
	c-0.3-6.2-0.5-11.9-0.5-17.7c-0.1-10-0.2-20,0.1-30c0.1-2.3,1.4-5,3-6.7c3.3-3.5,7.2-6.5,10.8-9.7c-0.4-0.4-0.7-0.9-1.1-1.3
	c-4.1,3.5-8.2,7-13.4,11.4c0-16.3,0-30.8,0-45.4c-0.4,0-0.9,0-1.3,0c0,14.8,0,29.6,0,45.8c-4.4-5.8-7.8-10.3-11.3-14.9
	c-0.5,0.4-0.9,0.7-1.4,1.1c3,4.1,5.8,8.3,9.1,12.1c2.7,3.1,3.5,6.5,3.4,10.5c-0.1,15.2,0.1,30.5,0.1,46c-0.1,0.5-0.1,0.7-0.5,1
	c-3.3-3.5-6.2-7-9-10.3c1.3-1.1,2.1-1.7,2.9-2.3c-0.1-0.3-0.2-0.5-0.3-0.8c-1.8,0.3-3.7,0.6-5.8,0.9c3.5,5.4,6.6,10.3,9.5,15.1
	c-0.5,0.6-0.6,1.2-0.8,1.7c-1,0.9-2,1.8-3.3,3c-0.6,0.4-0.8,0.6-1.2,1.2c-0.3,0.5-0.4,0.7-0.4,0.8c-0.5,11.8-0.9,23.7-1.3,35.5
	c0,0.3,0.7,0.6,1.1,1.2c0,0.2,0.1,0.6,0,1.1c-0.1,20-0.1,39.6-0.1,60c-9.3,0-18,0-26.8,0C609.1,2694.4,609.1,2694.2,609.1,2694.1z"
	/>
<path class="st20" d="M613.1,2740.7c0,0,0-0.5,0.4-0.6c6.1-0.2,11.8-0.2,17.4-0.2c2.6,0,5-0.2,5-3.9c-0.1-13.3-0.2-26.6,0.1-39.9
	c0.8-0.1,1.2-0.1,1.7-0.2c0.1,17.6,0.2,35.3,0.2,52.9c0,24.5,0,48.9-0.2,73.9c-0.5,0.5-0.8,0.4-0.9-0.7c0.1-18.7,0.1-36.6,0.1-54.6
	c0-1.1-0.5-2.2-0.9-3.5c-0.4-1-1-1.7-1-2.4c0.4-6.7,0.9-13.4,1.4-20.7C627.9,2740.7,620.5,2740.7,613.1,2740.7z"/>
<path class="st21" d="M637.8,2695.6c-0.5,0.4-0.9,0.4-2.2,0.5c-9.4-0.1-18-0.1-26.6-0.2c0-0.3,0-0.7,0.1-1.2
	c8.8-0.2,17.6-0.2,26.8-0.2c0-20.4,0-39.9,0.4-59.7c0.5,17.7,0.6,35.6,0.7,53.5c0,1.9,0.5,3.9,0.7,5.8
	C637.7,2694.5,637.8,2694.9,637.8,2695.6z"/>
<path class="st22" d="M645.2,2589.1c0,18.4,0,36.7,0,55.1c-0.7,0-1.4,0-2.1,0c0-17.1,0-34.3,0.1-52.2c0.4-1.5,0.7-2.2,1.2-2.9
	C644.8,2589.1,645,2589.1,645.2,2589.1z"/>
<path class="st20" d="M637.8,2693.6c-0.4-1.5-0.8-3.4-0.8-5.3c-0.2-17.9-0.3-35.8-0.7-54c-0.3-0.3-0.4-0.7-0.1-1.2
	c0.4-12.9,0.5-25.2,0.6-37.6c0.1-0.3,0.3-0.4,0.8-0.5C637.9,2627.7,637.9,2660.4,637.8,2693.6z"/>
<path class="st11" d="M665.1,2693.3c0,6,0,11.6,0,17.2c-1.4-8.4-2.9-16.9,0-25.1C665.1,2687.8,665.1,2690.3,665.1,2693.3z"/>
<path class="st4" d="M674.5,2786.5c-0.2,2.2-0.4,3.9-0.5,5.6c-0.5,0-0.9-0.1-1.4-0.1c0-7.6,0-15.3,0-22.9
	C675.1,2774.5,675,2780.3,674.5,2786.5z"/>
<path class="st23" d="M669.1,2658.1c-1,7-2,14.1-3,21.1c-0.6-0.1-1.2-0.2-1.7-0.3c0.9-5.9,1.7-11.9,2.7-17.8c0.2-1,0.9-1.9,1.8-2.9
	C669.1,2658.2,669.1,2658.1,669.1,2658.1z"/>
<path class="st24" d="M673.3,2743.4c0.2,1.1,0.2,1.8,0.3,2.5c-0.5,0.1-0.9,0.2-1.4,0.3c-1.8-6.1-3.6-12.2-5.4-18.3
	c0.5-0.2,1.1-0.4,1.6-0.5C670,2732.6,671.6,2737.8,673.3,2743.4z"/>
<path class="st24" d="M663.2,2739c-1.9-6.3-3.7-12.6-5.6-18.9c0.6-0.2,1.2-0.3,1.8-0.5c1.8,6.1,3.5,12.3,4.9,18.8
	C663.7,2738.9,663.4,2739,663.2,2739z"/>
<path class="st23" d="M663.2,2739.4c0.2-0.4,0.5-0.4,1.2-0.5c1.9,4.7,3.4,9.3,4.9,14c-0.6,0.2-1.2,0.3-1.7,0.5
	C666.1,2748.9,664.6,2744.3,663.2,2739.4z"/>
<path class="st25" d="M655.4,2579.1c1.4-0.8,3.1-1.7,5.2-2.4c0.1,0.5-0.1,0.8-0.6,1.2C658.5,2578.4,657.1,2578.8,655.4,2579.1z"/>
<path class="st25" d="M644.1,2589.1c-0.3,0.7-0.6,1.4-1,2.4c-0.5,0.3-1,0.2-1.7,0.2c-0.2-0.6,0-1.1,0.7-1.9c1-0.4,1.4-0.7,1.9-0.9
	C644,2589,644.1,2589.1,644.1,2589.1z"/>
<path class="st25" d="M647.7,2585.4c0.2,0,0.4,0,0.7,0.3c-0.7,1-1.5,1.8-2.7,2.6c-0.4,0-0.8-0.4-0.7-0.5c0-0.2,0.1-0.5,0.1-0.5
	c0-0.2,0-0.4,0.6-1C646.6,2585.8,647.2,2585.6,647.7,2585.4z"/>
<path class="st25" d="M649.2,2585.3c0.1-0.8,0.6-1.7,1.4-2.5C650.5,2583.7,650,2584.4,649.2,2585.3z"/>
<path class="st23" d="M669.1,2658.2c0.1-0.3,0.1-0.6,0.1-0.9c0,0.2-0.1,0.4-0.1,0.7C669.1,2658.1,669.1,2658.2,669.1,2658.2z"/>
<path class="st25" d="M651.3,2583.1c-0.2-0.5-0.1-0.9,0.3-1.2C651.9,2582.4,651.8,2582.7,651.3,2583.1z"/>
<path class="st25" d="M653.4,2581.1c-0.2-0.5-0.2-0.9,0.3-1.2C653.9,2580.4,653.8,2580.8,653.4,2581.1z"/>
<path class="st25" d="M654.4,2580.1c-0.2-0.4-0.1-0.9,0.3-1.2C655,2579.4,654.8,2579.8,654.4,2580.1z"/>
<path class="st25" d="M652.4,2582.1c-0.2-0.5-0.1-0.9,0.3-1.2C652.9,2581.4,652.8,2581.7,652.4,2582.1z"/>
<path class="st25" d="M645.3,2589c-0.3,0.1-0.5,0.1-0.9,0.1c-0.3,0-0.4-0.1-0.3-0.3c0.3-0.5,0.5-0.7,0.8-0.8c0,0,0.3,0.4,0.5,0.6
	C645.5,2588.7,645.4,2588.9,645.3,2589z"/>
<path class="st26" d="M235.2,2650.1c0.3,1.8,0.7,3.5,0.7,5.3c0,53.7,0,107.4,0,161.2c0,1.7-0.5,3.5-1.2,5.3
	c-0.4-0.9-0.6-1.8-0.6-2.8c0-55.2,0.1-110.4,0.4-166.4C235,2651.2,235.1,2650.7,235.2,2650.1z"/>
<path class="st26" d="M234.1,2596.5c0.6,0.5,1.8,1.5,1.8,2.5c0.1,11.7,0.1,23.4,0,35.1c0,0.6-0.5,1.1-1.2,1.8
	C234.3,2623,234.2,2610,234.1,2596.5z"/>
<path class="st11" d="M222.2,2765.9c0-12.2,0-24.4,0-36.5c0.5,0,1.1,0,1.6,0c0,11.6,0,23.2-0.2,35.3
	C223,2765.5,222.6,2765.7,222.2,2765.9z"/>
<path class="st5" d="M227.7,2801.5c0-1.6,0-3.1,0-4.7c0.2,0,0.4,0,0.6-0.1c1.3,4.3,2.5,8.6,3.8,12.9c-0.2,0.2-0.4,0.3-0.7,0.5
	c-5.1-5.6-10.3-11.2-15.3-16.9c-0.6-0.7-0.5-1.9-0.8-2.9c3.8,4.1,7.3,7.8,11.2,11.9C227.3,2802.3,227.5,2801.9,227.7,2801.5z"/>
<path class="st27" d="M213.3,2762.8c0,7.5,0,14.6,0,23c-2.8-12.5-1.4-23.9-1.3-35.2c0.4,0,0.9,0,1.3,0
	C213.3,2754.5,213.3,2758.4,213.3,2762.8z"/>
<path class="st20" d="M222.1,2766.4c0.5-0.7,0.8-0.9,1.4-1.3c1,7.1,1.9,14.3,2.7,21.4C222.8,2780.4,223.1,2773.5,222.1,2766.4z"/>
<path class="st9" d="M224.7,2708.4c0.8-6.3,1.5-12.2,2.2-18.1c0.4,0.1,0.8,0.1,1.2,0.2c-0.1,6.5-0.2,13-3,19.2
	c-0.1,0.1-0.3,0.2-0.4,0.3C224.7,2709.5,224.7,2709.1,224.7,2708.4z"/>
<path class="st24" d="M235.2,2649.7c0,0.9-0.1,1.5-0.4,2.5c-1,1.9-1.9,3.3-2.7,4.8c-0.3,0-0.6-0.1-0.9-0.1c0.3-2.7,0.7-5.5,1.1-8.6
	C233.3,2648.4,234.2,2648.9,235.2,2649.7z"/>
<path class="st6" d="M198.3,2592.4c0.2-0.9,0.7-1.4,1.5-1.7C199.6,2591.6,199.1,2592.1,198.3,2592.4z"/>
<path class="st6" d="M200.3,2591.1c-0.2-0.5-0.1-1,0.3-1.2C200.9,2590.4,200.8,2590.7,200.3,2591.1z"/>
<path class="st23" d="M347.5,2591.2c1.4-2.2,3.1-4.3,5.2-6.2c-2.7,4.5-1.8,9.5-1.8,14.4c0,11.8,0,23.7,0,35.5c0,1.6,0,3.2,0,4.7
	c-0.5,0.1-1,0.1-1.5,0.2c-0.1-1.2-0.4-2.5-0.4-3.7c0-13.5,0-27-0.1-40.5C348.9,2594.1,348.2,2592.7,347.5,2591.2z"/>
<path class="st24" d="M367.7,2690c1.9,13.9,3.9,27.8,5.8,41.8c-5.3-13.1-6.1-27.1-7.2-41.3C367,2690,367.3,2690,367.7,2690z"/>
<path class="st28" d="M379,2692.9c0,4.3,0,8.1,0,11.3c-3.2-3.7-3.3-26.5,0-29.9C379,2680.2,379,2686.3,379,2692.9z"/>
<path class="st11" d="M367.7,2689.6c-0.4,0.4-0.7,0.4-1.3,0.4c-0.3-11.7-0.4-23.4,0.1-35.5c0.7-0.4,1-0.4,1.3-0.4
	C367.8,2665.8,367.8,2677.5,367.7,2689.6z"/>
<path class="st22" d="M367.9,2653.7c-0.4,0.4-0.6,0.4-1.3,0.4c0-8.1,0.4-16.3,3.7-23.9C369.5,2637.9,368.8,2645.6,367.9,2653.7z"/>
<path class="st23" d="M354,2584.6c0.8-1.4,1.7-2.3,2.8-2.8c0.2,8.2,0.2,16,0.2,23.9c-0.5,0-1,0.1-1.5,0.1c-0.1-1.6-0.3-3.2-0.4-4.8
	C354.7,2595.6,354.4,2590.3,354,2584.6z"/>
<path class="st23" d="M360.4,2579.1c0.5-2.3,0.5-2.3,6.2-2.1c0.3,0.9,0.3,1.7,0.2,2.9C365.1,2578.7,363.3,2576.9,360.4,2579.1z"/>
<path class="st23" d="M341.4,2597c1.2-1.8,2.7-3.7,4.4-5.2c-0.7,1.7-1.8,3.2-2.9,4.9C342.3,2597,342,2597,341.4,2597z"/>
<path class="st23" d="M357.4,2582c0.5-1.2,1.3-2.4,2.3-3.3C359.3,2580.1,358.5,2581.1,357.4,2582z"/>
<path class="st23" d="M346.4,2592.2c-0.3-0.6-0.2-1,0.3-1.3C347,2591.5,346.9,2591.9,346.4,2592.2z"/>
<path class="st23" d="M353.4,2585.2c-0.3-0.5-0.2-0.9,0.3-1.2C354,2584.5,353.9,2584.9,353.4,2585.2z"/>
<path class="st10" d="M824.5,2597.5c0.5,1,1.4,2.4,1.4,3.9c0.1,72.3,0.1,144.6,0,216.9c0,1.5-0.4,2.9-1,4.6c-0.4-0.9-0.6-2-0.6-3.2
	C824.4,2745.8,824.4,2671.9,824.5,2597.5z"/>
<path class="st29" d="M689.9,2694.1c2.8,0.1,5.5,0.1,9,0.2c0.7,0,1.1,0.1,1.5,0.3c12.4,0.1,24.5,0,37-0.2c0.8-0.1,1.2-0.3,2-0.4
	c0.8,0,1.2,0,2,0.2c0.5,0.2,0.7,0.3,1.2,0.5c13.4,0.1,26.4-0.1,39.8-0.3c0.7-1.8,1.4-3.5,1.4-5.2c0.2-15,0.3-30.1,0.7-45.1
	c0.2,0,0.6,0,0.7,0.4c0.2,0.7,0.3,1.2,0.4,1.6c-0.1,20-0.1,40-0.6,60.5c-0.7,0.5-0.9,0.5-1.6,0.5c-6,0-11.6,0-17.1,0
	c0-0.6,0-1.2,0-1.8c5.8,0,11.6,0,17.3,0c0-3.5,0-6.2,0-9.3c-33.7,0-67,0-100.4,0c0,0,0-0.5,0.4-0.7c1.8-0.5,3.2-0.7,4.9-0.9
	C689,2694.2,689.5,2694.1,689.9,2694.1z"/>
<path class="st30" d="M783.6,2707.1c0.2,0,0.5,0,1-0.1c0.4,8.3,0.5,16.7,0.5,25.8c0,1.3,0.1,1.7,0.2,2.2c-0.1,1.4-0.1,2.8-0.5,4.6
	c-0.3,0.4-0.7,0.4-0.7,0.4c0-0.2-0.1-0.5-0.3-1.5c-0.1-6.5-0.1-12.3-0.1-18.5c-20.9,0-41,0-61.1,0c0-0.4,0-0.8,0-1.3
	c20.3,0,40.6,0,61,0C783.6,2714.4,783.6,2710.8,783.6,2707.1z"/>
<path class="st30" d="M814.6,2586.5c0.5,0.1,0.9,0.6,1.4,1.4c0.1,26.6,0.1,52.9-0.3,79.7c-0.5,0.5-0.7,0.5-0.9,0.6
	c-0.1-18.6-0.2-37.2-0.3-55.8C814.5,2603.8,814.6,2595.4,814.6,2586.5z"/>
<path class="st20" d="M793.1,2586.1c1.4-1.3,2.9-2.5,4.7-3.7c0.7,0.3,1,0.4,1.3,0.6c0,9.6,0,19.2,0,28.8c-0.7,0-1.4,0-2.1,0
	c0-4.3,0-8.6,0-12.9c0-3.8,0-7.6-0.1-11.5c0-0.3-1-0.5-2.4-0.6c-1,0.1-1.3,0-1.5-0.2C793,2586.5,793.1,2586.1,793.1,2586.1z"/>
<path class="st24" d="M794.2,2747.8c2.6-8.7,5.1-17.4,8.1-26.5c0.7-0.3,1.1-0.3,1.4-0.3c-2.5,8.8-5,17.6-8.1,26.6
	C794.8,2747.9,794.5,2747.9,794.2,2747.8z"/>
<path class="st23" d="M786.7,2733c1.8-7.6,3.6-15.2,5.8-23.2c0.7-0.6,1.1-0.8,1.6-1c-2.1,8.6-4.2,17.3-6.7,25.7
	C786.9,2733.9,786.8,2733.4,786.7,2733z"/>
<path class="st23" d="M794,2748.1c0.4-0.3,0.7-0.2,1.4-0.2c-1.9,5.9-4.2,11.8-6.6,17.5c-0.6,1.4-1.9,2.4-3.6,3.6
	c-0.9-0.1-1.1-0.1-1.4-0.4c0-0.7,0-1.1,0.3-1.6c0.5,0,0.7-0.1,1.1-0.1c0.7-0.7,1.1-1.3,1.5-2C789.2,2759.5,791.5,2753.9,794,2748.1z
	"/>
<path class="st31" d="M784,2768.9c0.2,0,0.4,0,0.9,0.1c0.3,17.7,0.3,35.5,0.2,53.7c-0.4,0.4-0.7,0.4-1.2-0.2
	C783.7,2804.3,783.8,2786.6,784,2768.9z"/>
<path class="st22" d="M795.8,2673.4c0,8.8-0.1,17.5-0.4,27c-0.9,0.7-1.5,0.8-2.1,0.9c0.2-8.5,0.4-16.9,0.8-25.9
	C794.9,2674.4,795.4,2673.9,795.8,2673.4z"/>
<path class="st31" d="M785.3,2596.2c0,15.3,0,30.6-0.1,46.3c0,0.4-0.3,0.4-0.5,0.4s-0.5,0-0.7-0.4c-0.2-8.9-0.3-17.3-0.2-25.7
	c0.1-7.1,0.3-14.2,0.8-21.1C785,2596,785.1,2596.1,785.3,2596.2z"/>
<path class="st32" d="M785.7,2646.1c-0.4-0.4-0.5-0.9-0.6-1.9c-0.1-0.8-0.2-1-0.2-1.2c0,0,0.3-0.1,0.4,0c0.6,0,1.2-0.4,1.5-0.2
	c2.9,1.1,5.2,8.9,3.4,12.1C788.7,2651.8,787.4,2648.9,785.7,2646.1z"/>
<path class="st31" d="M785,2767c-0.2,0-0.4,0-0.9-0.4c-0.4-8.8-0.4-17-0.3-25.6c0.1-0.5,0.1-0.7,0.1-0.9c0,0,0.1,0,0.2,0
	c0.1,0,0.5,0,0.7,0c0.3,8,0.4,16,0.4,24.8C785.1,2766.1,785.1,2766.5,785,2767z"/>
<path class="st33" d="M803.9,2720.6c-0.5,0.4-0.8,0.4-1.5,0.4c0.1-4.1,0.4-8.2,0.7-12.3c0.3,0,0.6,0,0.8,0
	C804,2712.5,804,2716.4,803.9,2720.6z"/>
<path class="st32" d="M795.9,2673c-0.5,0.9-1,1.3-1.8,1.9c-0.3-1.7-0.3-3.5-0.3-5.3c0.5,0,1-0.1,1.5-0.1
	C795.6,2670.5,795.8,2671.6,795.9,2673z"/>
<path class="st7" d="M799.4,2582.9c-0.6,0-0.9-0.2-1.3-0.6c1.4-1.6,2.8-3,4.6-4.3C802,2579.6,800.8,2581.1,799.4,2582.9z"/>
<path class="st32" d="M791.1,2661.6c0.6-1,1.2-1.7,1.9-2.3c0.3,0.5,0.6,1,0.9,1.6C793,2661.2,792.1,2661.6,791.1,2661.6z"/>
<path class="st32" d="M793.2,2701.5c0.7-0.3,1.3-0.4,2.2-0.7c0.4,1,0.4,2.3,0.4,3.5c-0.3,0.1-0.7,0.2-1,0.4
	C794.2,2703.7,793.7,2702.8,793.2,2701.5z"/>
<path class="st32" d="M794,2666.1c-0.5,0.6-1.1,0.9-1.6,1.1c0.1-0.7,0.1-1.4,0.2-2.2C793,2665.3,793.5,2665.5,794,2666.1z"/>
<path class="st32" d="M794.1,2708.4c-0.4,0.5-0.8,0.7-1.6,0.9c-0.1-0.9,0.1-1.9,0.3-2.8C793.2,2707.1,793.6,2707.6,794.1,2708.4z"/>
<path class="st32" d="M786.5,2733c0.3,0.4,0.4,0.9,0.6,1.6c-0.3,0.4-0.7,0.4-1.4,0.4c-0.4-0.5-0.5-0.9-0.4-1.7
	C785.6,2733,786,2733,786.5,2733z"/>
<path class="st32" d="M791,2657.6c-0.3-0.4-0.4-0.8-0.4-1.2c0.3,0,0.6,0,0.8,0C791.3,2656.9,791.3,2657.2,791,2657.6z"/>
<path class="st32" d="M785.4,2767c-0.3-0.4-0.2-0.9-0.1-1.7c0.5-0.3,0.8-0.3,1.3-0.3C786.5,2765.6,786.1,2766.3,785.4,2767z"/>
<path class="st31" d="M786.8,2594.6c-0.3,0.5-0.7,0.9-1.2,1.5c-0.4,0-0.6-0.1-0.8-0.7c0.3-0.8,0.7-1.2,1.4-1.4
	C786.4,2594.4,786.6,2594.5,786.8,2594.6z"/>
<path class="st31" d="M788.1,2593.2c-0.3,0.4-0.6,0.8-1.2,1.3c-0.4,0-0.5-0.1-0.8-0.7c0.3-0.8,0.8-1.2,1.4-1.3
	C787.9,2592.9,788,2593,788.1,2593.2z"/>
<path class="st31" d="M790.2,2591.2c-0.2,0.3-0.4,0.6-1,0.7c-0.6-0.3-0.7-0.4-0.7-0.7c0.4-0.4,0.6-0.6,1.1-0.6
	C789.9,2590.9,790,2591,790.2,2591.2z"/>
<path class="st31" d="M788.9,2591.9c0,0.5-0.1,0.8-0.6,1.1c-0.4-0.1-0.5-0.2-0.7-0.8c0.2-0.6,0.4-0.8,0.6-1
	C788.5,2591.5,788.6,2591.6,788.9,2591.9z"/>
<path class="st31" d="M793.3,2588.3c-0.2,0.3-0.3,0.6-1,0.7c-0.6-0.3-0.7-0.4-0.7-0.7c0.4-0.4,0.6-0.6,1.1-0.5
	C793,2588,793.2,2588.1,793.3,2588.3z"/>
<path class="st33" d="M814.9,2668.4c0.1-0.3,0.3-0.4,0.8-0.4C815.6,2668.2,815.3,2668.5,814.9,2668.4z"/>
<path class="st31" d="M793,2587c0.3,0,0.5,0,1.2,0.1c0.2,0.3-0.1,0.7-0.6,1.1c-0.4,0-0.6-0.1-0.8-0.6
	C792.7,2587.2,793,2587,793,2587z"/>
<path class="st31" d="M792.1,2589.1c0,0.5-0.2,0.8-0.8,0.9c-0.6-0.3-0.7-0.4-0.7-0.7c0.4-0.4,0.6-0.6,0.9-0.8
	C791.6,2588.6,791.7,2588.7,792.1,2589.1z"/>
<path class="st31" d="M791,2590c0,0.5-0.2,0.8-0.6,1.1c-0.4-0.1-0.5-0.2-0.7-0.7c0.2-0.6,0.4-0.8,0.7-1
	C790.5,2589.5,790.7,2589.7,791,2590z"/>
<path class="st34" d="M505.9,2579.8c1-1,2-1.9,3.4-3.2c1.1-0.7,1.8-1.1,2.6-1.8c0-0.4,0-0.6,0-1.2c0-41.5,0-82.5,0-123.8
	c0-0.4,0-0.6,0-1c0.1-0.2-0.1-0.7,0-1c0-0.2,0-0.7,0.3-0.7c0.5,0,0.6,0,0.8,0.5c0,43.8,0,87.1,0,130.4c-2.9-0.4-4.1,0.4-4.1,3.7
	c0.2,13.5,0.1,27,0.1,40.5c0,1.6,0,3.2,0,4.7c-0.6,0-1.2,0-1.8,0c-0.1-15.2-0.2-30.4-0.8-46C506,2580.2,506,2580,505.9,2579.8z"/>
<path class="st10" d="M529.4,2597.5c0.6,0.8,1.6,2,1.6,3.2c0.1,35.9,0.1,71.9,0,107.8c0,1-0.6,2.1-1.3,3.3
	C529.3,2674,529.3,2636,529.4,2597.5z"/>
<path class="st35" d="M513.1,2578.1c-0.1-43.4-0.2-86.8,0.1-130.6c0.4-0.6,0.6-0.6,0.8-0.6c0,0.1,0.1,0.3,0.1,0.7
	c0,11.5,0,22.5,0,33.9c-0.1,30.4-0.1,60.3-0.1,90.3c0,1.6,0.7,3.1,1,4.7c-0.3,0.5-0.6,1-1.1,1.6
	C513.6,2578.2,513.3,2578.2,513.1,2578.1z"/>
<path class="st22" d="M514.5,2748c0.7,2.6,1.5,5.2,1.4,7.7c-0.1,10.6-0.5,21.2-0.8,31.8c0,1.5-0.5,3-0.9,5.2
	C514.2,2777.2,514.2,2762.6,514.5,2748z"/>
<path class="st23" d="M499,2798c1.1-9.5,2.2-18.9,3.8-28.7c0.7-0.3,0.9-0.3,1.2-0.3c-1.2,10.1-2.4,20.2-3.6,30.2
	C499.9,2798.8,499.5,2798.4,499,2798z"/>
<path class="st36" d="M489.9,2669c-0.3-0.5-0.5-1.1-1-2.4c-0.1-17.4,0-34,0.3-50.7c0.5,0,0.7,0,0.8,0.1c0,16.4,0.1,32.7,0.1,49.9
	C490,2667.5,489.9,2668.2,489.9,2669z"/>
<path class="st33" d="M496.6,2806.8c0.1-0.4,0.3-0.7,0.7-1.1c1.1-0.3,1.9-0.6,2.7-0.8c1.8,2.4,3.5,4.9,5.9,8.1
	c1.5-2.3,2.6-4.1,3.8-5.9c0.5,0.2,0.9,0.5,1.4,0.7c-1.4,2-2.4,4.6-4.2,5.7c-0.8,0.5-3.4-2-5.3-3.1c-1.9-1.1-0.2-6.2-4.9-4
	C496.5,2806.8,496.6,2806.8,496.6,2806.8z"/>
<path class="st37" d="M496.2,2806.9c0.4-0.2,0.3-0.1,0.3-0.1c0.3,1.2,1.1,2.6,0.7,3.6c-1.3,3.5-3,6.8-4.8,10.5c-1-0.9-1.6-2-2.2-3.5
	C492.1,2813.7,494,2810.4,496.2,2806.9z"/>
<path class="st36" d="M488.5,2696.2c0.2,0,0.5,0,1.1-0.1c0.4,7.5,0.3,15.1,0.6,22.7c0.1,3.2,1.1,6.3,1.5,9.9c-0.5,0.5-0.7,0.5-1,0.5
	c-0.1,0-0.4,0-0.7,0c-0.6,0-0.8-0.1-1.1-0.5C488.6,2717.5,488.6,2706.8,488.5,2696.2z"/>
<path class="st37" d="M490.3,2615.7c-0.5,0.3-0.7,0.3-1.1,0.3c-0.3,0-0.2,0-0.2-0.3c0-0.8-0.1-1.2-0.1-1.6c0-5.4,0.1-10.7,0.4-16.5
	c0.7-0.6,1-0.8,1.4-0.9C490.7,2602.8,490.7,2609.1,490.3,2615.7z"/>
<path class="st23" d="M494.8,2676.7c0.7,5.3,1.3,10.7,1.8,16.4c-0.6,0.4-1,0.4-1.3,0.4c-0.7-4.9-1.5-9.8-2-15.1
	C493.8,2677.5,494.3,2677.1,494.8,2676.7z"/>
<path class="st30" d="M504,2768.5c-0.3,0.5-0.5,0.4-1,0.4c-0.3-10.3-0.3-20.5-0.3-30.8c0.5,0,1,0,1.4,0
	C504.1,2748.1,504.1,2758.1,504,2768.5z"/>
<path class="st38" d="M495.1,2742c0.4,3.4,0.8,6.9,1.2,10.3c-0.6,0.1-1.2,0.2-1.7,0.3c-3.3-2.6-1-6.6-1.2-10.2
	C494.2,2742.1,494.7,2742,495.1,2742z"/>
<path class="st24" d="M495.1,2741.6c-0.5,0.4-0.9,0.5-1.7,0.3c-0.8-3.1-1.2-6.2-1.9-9.9c-0.4-1.4-0.6-2.2-0.8-2.9
	c0.2,0,0.4-0.1,0.9-0.1C493,2733.1,494.1,2737.1,495.1,2741.6z"/>
<path class="st27" d="M496.4,2590c2.4-3.1,5.2-6.2,8.3-9.1C502.3,2584,499.5,2587,496.4,2590z"/>
<path class="st37" d="M490,2669.3c0-1.1,0.1-1.9,0.2-3c1.3,0.9,2.6,2.2,3.8,3.5c-1,0.7-2,1.4-3.3,2.1
	C490.2,2671.3,490.1,2670.5,490,2669.3z"/>
<path class="st38" d="M492.7,2762.7c-1.1-0.6-1.8-1.3-2.5-2.4c1.1-1.6,2.1-2.8,3.3-4.2C495.2,2756.9,495.3,2757.3,492.7,2762.7z"/>
<path class="st37" d="M501.9,2734.4c-0.3-2.4-0.2-4.7-0.2-7c0.9,0.1,1.7,0.3,2.6,0.4C503.7,2730.1,503,2732.3,501.9,2734.4z"/>
<path class="st27" d="M490.8,2596.2c-0.5,0.5-0.8,0.6-1.5,0.8c1.5-2.2,3.4-4.4,5.5-6.3C493.7,2592.7,492.3,2594.3,490.8,2596.2z"/>
<path class="st37" d="M503,2723.1c-0.6,1.2-1.2,2-2.1,3.3C500.5,2721.7,500.5,2721.7,503,2723.1z"/>
<path class="st37" d="M497.1,2706.1c0.5-1.1,1-1.9,1.5-2.7c0.4,0.1,0.7,0.1,1.1,0.2c-0.2,1.2-0.4,2.4-0.6,3.6
	C498.5,2706.9,497.8,2706.6,497.1,2706.1z"/>
<path class="st36" d="M490,2738.6c-0.3,0.4-0.6,0.4-1.1-0.1c-0.2-3.1-0.1-5.8,0.2-8.5c0.5,0,0.7,0,0.9,0.5c0.1,1.8,0.2,3.2,0.2,4.6
	C490.2,2736.1,490.1,2737.1,490,2738.6z"/>
<path class="st37" d="M494.8,2676.3c-0.5,0.8-1,1.2-1.7,1.6c-0.2-1.1-0.2-2.2-0.1-3.3C493.6,2675.1,494.3,2675.5,494.8,2676.3z"/>
<path class="st37" d="M497,2701.5c-0.5-1-0.6-2-0.8-2.9c0.5,0,1,0,1.6,0C497.6,2699.5,497.5,2700.5,497,2701.5z"/>
<path class="st37" d="M499,2713.5c-0.5-1-0.6-1.9-0.8-2.9c0.5,0,1,0,1.5-0.1C499.5,2711.5,499.4,2712.5,499,2713.5z"/>
<path class="st37" d="M500,2804.4c-0.8,0.6-1.6,0.9-2.7,1c0.2-1.2,0.6-2.2,1-3.3C498.9,2802.8,499.5,2803.4,500,2804.4z"/>
<path class="st37" d="M499.1,2718.2c0.6-0.6,1.1-0.9,1.6-1.2c0,0.7-0.1,1.5-0.1,2.2C500.1,2718.9,499.6,2718.7,499.1,2718.2z"/>
<path class="st37" d="M495.1,2693.9c0.4-0.4,0.8-0.4,1.4-0.4c0.2,1,0.1,1.9,0,2.9c-0.3,0-0.6,0.1-0.8,0.1
	C495.5,2695.8,495.3,2695,495.1,2693.9z"/>
<path class="st37" d="M498.8,2798.2c0.7,0.2,1.2,0.6,1.5,1.4c-0.7,0.6-1.2,0.8-1.7,1C498.5,2799.8,498.5,2799.1,498.8,2798.2z"/>
<path class="st38" d="M490.5,2734.7c-0.3-1.1-0.4-2.5-0.3-4.5c0.1-0.6,0.1-1.1,0.1-1.1s0.2,0,0.4,0c0.3,0.8,0.5,1.5,0.7,2.6
	C491.1,2732.8,490.9,2733.6,490.5,2734.7z"/>
<path class="st27" d="M505.6,2579.8c0.4,0.2,0.4,0.4,0.4,0.9c-0.1,0.5-0.3,0.6-0.7,0.5C505.1,2580.7,505.2,2580.3,505.6,2579.8z"/>
<path class="st27" d="M495.3,2591.1c-0.2-0.5-0.2-1,0.3-1.2C495.9,2590.4,495.8,2590.7,495.3,2591.1z"/>
<path class="st3" d="M340.8,2738.6c-0.1,0.3-0.1,0.4-0.1,0.4c-29.4,0-58.9,0.1-88.3,0.1c-3.5,0-7,0-11,0c-0.5,0-0.4,0-0.5-0.5
	c0-14.5,0-28.5,0.1-42.6c33.1,0,66.2,0,99.6,0c0,10.2,0,20.1,0,30.7c-3.8,0-7.7,0-12.3,0c-1.2,0.3-1.7,0.6-2.2,0.9
	c0.6,0.2,1.3,0.4,1.9,0.7c4.1,0,8.2,0,12.8,0C340.8,2731.9,340.8,2735.1,340.8,2738.6z"/>
<path class="st39" d="M612.9,2740.8c7.6-0.1,15-0.1,23.6-0.1c-0.5,7.2-1,13.9-1.4,20.7c0,0.7,0.5,1.4,0.9,2.9
	c0.2,19.8,0.2,38.9,0.3,57.9c-3.4,0.3-6.8,0.7-10.2,0.8c-7.5,0.1-14.9,0-23.9,0c1.5-4.7,1.9-9.4,4.3-12.5c7.4-9.6,8.4-19.9,3.3-30.3
	c-6.6-13.5-5.7-26,2.3-38.8C612.3,2741,612.5,2741,612.9,2740.8z"/>
<path class="st40" d="M636.3,2822.2c-0.2-19.1-0.2-38.1-0.3-57.6c0.3,0.6,0.8,1.7,0.8,2.8c0,18,0,35.9-0.2,54.4
	C636.6,2822.2,636.4,2822.2,636.3,2822.2z"/>
<path class="st41" d="M608.5,2696c9.1,0,17.7,0,26.8,0.1c0.5,13.3,0.5,26.6,0.7,39.9c0,3.7-2.4,3.8-5,3.9c-5.7,0-11.3,0-17.4,0
	c-2.2-0.3-3.9-0.9-5.6-0.9c-22.5-0.1-44.9,0-67.4,0c-1.6,0-3.3,0-5.2,0c0-14.3,0-28.3,0-42.9C559.6,2696.1,583.8,2696.1,608.5,2696z
	"/>
<path class="st39" d="M515.3,2576.4c-0.7-1.5-1.3-3-1.3-4.6c0-29.9,0-59.9,0.5-90.3c6.2-0.5,11.9-0.5,17.6-0.1
	c0.1,37.2,0,73.9,0,110.6c-4-4.2-8-8.4-12.1-12.5C518.8,2578.3,517.1,2577.4,515.3,2576.4z"/>
<path class="st27" d="M532.5,2591.9c-0.4-36.6-0.3-73.3-0.3-110.9c0-11.8,0-22.6,0-33.8c-6.5,0-12.3,0-18.1,0c0,0-0.1-0.2-0.1-0.5
	c0-0.3,0-0.7,0.3-0.7c0.8,0,1.2,0,1.9-0.1c0.5-0.2,0.7-0.4,1.3-0.6c9.1,0,17.8,0,26.7,0.2c1,0.3,1.7,0.5,2.3,0.5
	c37.9,0,75.8,0,113.7,0c1.3,0,2.5-0.5,4-0.9c0.2-0.1,0.6-0.2,0.8,0c0.4,0.4,0.7,0.7,1.1,1.1c0,0.4,0,0.6,0,0.8
	c-40.3,0-80.5,0.1-121.2,0.2c-10.8-0.6-10.8-0.6-10.8,9.9c0,43.1,0,86.1,0,129.2C534,2588.1,533.3,2589.9,532.5,2591.9z"/>
<path class="st42" d="M547.7,2598.2c-0.6,1.5-1.6,3.1-3,4.8C543.6,2600.4,544.4,2598.7,547.7,2598.2z"/>
<path class="st42" d="M546,2682.5c-0.2,0.4-0.3,0.5-0.7,0.5c-0.5-1.4-0.8-2.9-0.9-4.6C544.9,2679.3,545.5,2680.7,546,2682.5z"/>
<path class="st2" d="M488.9,2730c-0.1,2.7-0.2,5.3-0.3,8.5c-33.4,0.4-66.8,0.4-100.8,0.4c0-6,0-11.9,0.6-18.1
	c8.5-0.4,16.4-0.4,24.3-0.4c0-0.5,0-0.9,0-1.4c-8.2,0-16.4,0-24.7,0c0-7.4,0-14.9,0-22.9c33.2,0,66.4,0,100.1,0
	c0.5,10.7,0.5,21.4,0.6,32.7C488.7,2729.6,488.8,2729.8,488.9,2730z"/>
<path class="st43" d="M488.9,2615.9c-0.1,16.6-0.2,33.3-0.2,50.4c0.1,0.4-0.3,0.6-0.4,0.7c-0.5-1.6-1.2-3.3-1.3-5
	c-0.1-12.2,0-24.5-0.1-36.7c0-2.9-0.4-5.9,0.1-9C488.1,2616.1,488.6,2616,488.9,2615.9C489,2616,488.9,2616,488.9,2615.9z"/>
<path class="st44" d="M386.7,2596.3c0.5,10.3,0.6,21,0.8,31.6c0.1,5.5,0.2,11,0.7,16.8c-0.5-0.7-2.1-1.8-2.1-2.9
	C386.1,2626.7,386.3,2611.6,386.7,2596.3z"/>
<path class="st44" d="M387.2,2647.1c0.4,13.9,0.4,27.9,0.6,42.4c-0.5-0.5-1.7-1.4-1.7-2.4c-0.1-12.9-0.1-25.8,0-38.7
	C386.1,2648.1,386.6,2647.7,387.2,2647.1z"/>
<path class="st30" d="M388,2719.3c8.2-0.3,16.4-0.3,24.7-0.3c0,0.5,0,0.9,0,1.4c-7.9,0-15.8,0-24.2,0
	C388.1,2720,388,2719.8,388,2719.3z"/>
<path class="st23" d="M372.2,2579.8c1.3,0.9,2.6,2.1,4,3.7C375,2582.6,373.6,2581.4,372.2,2579.8z"/>
<path class="st23" d="M369.1,2577.4c0.7,0,1.4,0.4,2.4,1C370.8,2578.4,370,2578.1,369.1,2577.4z"/>
<path class="st45" d="M382.5,2653.5C382.4,2653.5,382.5,2653.6,382.5,2653.5z"/>
<path class="st18" d="M239.9,2596.2c0.5,1.5,0.9,3.3,0.9,5.1c0,30.3,0,60.5,0.1,91.5c0,0.9,0,1.1,0,1.3c-0.6-1.2-1.7-2.4-1.7-3.6
	c-0.1-30.7-0.1-61.4,0-92.1C239,2597.7,239.4,2597.1,239.9,2596.2z"/>
<path class="st43" d="M241.3,2694.1c-0.5-0.3-0.5-0.5-0.3-0.9c30.9-0.3,61.7-0.3,92.6-0.2c4.4,0,5.9-1.1,5.6-5.6
	c-0.4-7.3-0.1-14.7-0.1-22c0-1.7-0.4-3.4-0.6-5.5c0.6,0.5,1.3,1,2.2,1.7c0.3,9.9,0.3,19.6,0.1,30c-0.4,1.2-0.5,1.7-0.6,2.3
	c-15.1,0.1-30.3,0.2-45.4,0.2C277,2694.3,259.4,2694.2,241.3,2694.1z"/>
<path class="st26" d="M240.6,2696.1c0.3,13.9,0.3,27.9,0.3,42.4c-0.6-0.5-1.8-1.5-1.8-2.4c-0.1-12.6-0.1-25.3,0-37.9
	C239.1,2697.5,239.8,2696.9,240.6,2696.1z"/>
<path class="st23" d="M328,2727.8c-0.6,0.1-1.2-0.1-1.9-0.3c0.5-0.3,1-0.6,1.7-0.8C328,2727.1,328,2727.3,328,2727.8z"/>
<path class="st13" d="M340.3,2693.9c-0.2-0.5-0.1-1,0.2-1.7C340.7,2692.6,340.7,2693.3,340.3,2693.9z"/>
<path class="st46" d="M783.7,2741.3c0,8.3,0,16.6,0.1,25.3c0,0.9,0,1.3,0,2c0,18-0.1,35.7-0.4,53.8c-0.2,0.4-0.4,0.4-0.4,0.5
	c-33.1,0.1-66.2,0.1-99.8-0.3c-0.5-6.5-0.6-12.7-0.6-18.9c0.1-21,0.1-41.9,0.7-62.9c13-0.2,25.5-0.3,38-0.5c0.4,0.1,0.7,0.2,1.3,0.8
	c0.6,0.6,0.9,0.7,1.3,0.8c0,0,0,0-0.3,0.3c4,6.2,8.5,12,12.5,18.1c1.4,2.2,2.6,5,2.6,7.6c0.2,14.6,0.1,29.3,0.1,43.9
	c0,1.6,0.2,3.3,0.3,4.9c0.5,0,0.9,0,1.4,0c0.1-1.7,0.3-3.4,0.3-5.1c0-12.1,0.7-24.3-0.2-36.4c-0.7-9.6,1.9-16.5,10-21.7
	c3.1-2,5.7-4.9,8.5-7.4c-0.4-0.4-0.8-0.9-1.2-1.3c-5.5,4.7-11,9.4-17.2,14.7c0-7,0-12.8,0-18.6c0.2-0.1,0.4-0.2,1.3-0.2
	C756.5,2741,770.1,2741.1,783.7,2741.3 M693.6,2799.9c2.7-8.3,5.2-16.5,1.9-25.5c-3.3,9.3-7.3,18.3-4.7,29.3
	C691.8,2802.3,692.5,2801.4,693.6,2799.9z"/>
<path class="st1" d="M783.2,2707.1c0.4,3.7,0.4,7.3,0.4,11.7c-20.3,0-40.6,0-61,0c0,0.4,0,0.8,0,1.3c20.1,0,40.2,0,61.1,0
	c0,6.3,0,12,0,18.2c-20.5,0.5-41,0.6-61.4,0.7c-12.8,0-25.7,0-39.1-0.4c-0.5-14.5-0.4-28.5-0.3-42.6c0,0,0,0,0.1,0
	c33.4,0,66.8,0,100.4,0c0,3.1,0,5.8,0,9.3c-5.7,0-11.5,0-17.3,0c0,0.6,0,1.2,0,1.8C771.6,2707.1,777.2,2707.1,783.2,2707.1z"/>
<path class="st47" d="M740.6,2741c0.3,5.8,0.3,11.6,0.3,18.6c6.2-5.3,11.7-10,17.2-14.7c0.4,0.4,0.8,0.9,1.2,1.3
	c-2.8,2.5-5.4,5.4-8.5,7.4c-8.1,5.2-10.8,12.1-10,21.7c0.9,12.1,0.2,24.3,0.2,36.4c0,1.7-0.2,3.4-0.3,5.1c-0.5,0-0.9,0-1.4,0
	c-0.1-1.6-0.3-3.3-0.3-4.9c0-14.6,0.1-29.3-0.1-43.9c0-2.6-1.2-5.4-2.6-7.6c-4-6.1-8.5-11.9-12.1-18.1c5.2,5.5,9.7,11.4,15,18.2
	c0-7.4,0-13.5,0-19.5C739.5,2741,739.9,2741,740.6,2741z"/>
<path class="st48" d="M682.9,2740.9c-0.1,21-0.2,41.9-0.2,62.9c0,6.2,0,12.3,0.1,18.8c-0.4,0.4-0.8,0.4-1.6,0
	c-1-0.8-1.6-1.2-2.2-1.6c0.7-2.1,1.9-4.2,1.9-6.3c0.1-22.9,0.1-45.8,0.1-68.7c0-1.9,0.8-3.7,1.5-5.6
	C682.9,2740.4,682.9,2740.9,682.9,2740.9z"/>
<path class="st49" d="M738.8,2740.9c0.3,6.2,0.3,12.2,0.3,19.6c-5.3-6.9-9.8-12.7-14.7-18.5c-0.4,0-0.3,0-0.2-0.2
	c0.2-0.4,0.1-0.6,0.1-0.7c0.4-0.1,0.8-0.2,1.9-0.3c4.4,0,8.1-0.1,11.8-0.2C738.2,2740.7,738.3,2740.7,738.8,2740.9z"/>
<path class="st10" d="M682.5,2696.1c0.3,13.9,0.2,27.9,0.2,42.4c-0.5-0.5-1.7-1.5-1.7-2.5c-0.1-12.6-0.1-25.2,0-37.8
	C681.1,2697.6,681.8,2696.9,682.5,2696.1z"/>
<path class="st50" d="M683.2,2628.8c6,9.1,3.9,18.3,0.1,27.5c-0.4-0.4-0.5-0.8-0.6-1.3c0-8.1,0.1-16.1,0.2-24.9
	C683,2629.2,683.1,2629,683.2,2628.8z"/>
<path class="st50" d="M689.8,2693.7c-0.3,0.4-0.8,0.5-1.9,0.5c-2.1-0.1-3.5-0.1-4.9-0.1c-0.1-3.7-0.2-7.5-0.2-12
	c0.2-1,0.3-1.3,0.3-1.5C685.3,2684.8,687.5,2689.1,689.8,2693.7z"/>
<path class="st12" d="M783.8,2740.9c-13.7,0.2-27.3,0-41.3-0.2c7.4-0.3,15.3-0.6,23.2-0.7c5.8-0.1,11.6,0,17.8,0
	C783.9,2740.2,783.9,2740.4,783.8,2740.9z"/>
<path class="st12" d="M683.4,2740.9c-0.5,0-0.5-0.5-0.5-0.7c12.5-0.2,25-0.1,38,0C708.9,2740.5,696.4,2740.7,683.4,2740.9z"/>
<path class="st12" d="M737.6,2740.4c-3.3,0.3-7,0.4-11.2,0.3C729.8,2740.4,733.5,2740.3,737.6,2740.4z"/>
<path class="st51" d="M683,2694.3c1.4-0.2,2.8-0.2,4.6-0.1c-1,0.3-2.4,0.5-4.2,0.7C683,2695,683,2694.5,683,2694.3z"/>
<path class="st12" d="M678.9,2821.3c0.7,0.2,1.3,0.6,2,1.3c-0.4,0.3-0.8,0.4-1.5,0.5C679,2822.6,678.9,2822,678.9,2821.3z"/>
<path class="st51" d="M682.4,2655.3c0.3,0.2,0.4,0.6,0.6,1.3c0,0.5,0,0.7-0.2,1.2C682.6,2657.2,682.4,2656.4,682.4,2655.3z"/>
<path class="st51" d="M683.1,2680.3c0,0.4-0.1,0.7-0.3,1.3c-0.2-0.3-0.3-0.8-0.2-1.6C682.8,2679.8,683.1,2680.2,683.1,2680.3z"/>
<path class="st51" d="M683.1,2628.6c0,0.4-0.1,0.7-0.3,1.1c-0.2-0.3-0.3-0.9-0.2-1.6C682.8,2628,682.9,2628.2,683.1,2628.6z"/>
<path class="st47" d="M723.9,2741c0.4,0.2,0.4,0.4,0.2,0.8c-0.5,0.1-0.9,0-1.3-0.5C723.1,2740.9,723.3,2740.9,723.9,2741z"/>
<path class="st52" d="M395,2450c10.2,3.2,18.2,8.7,21.2,19.8c0.3,1.3,2.2,2.3,3.6,3c9.9,5.3,11.2,7.7,10.3,18.8
	c-0.3,3.9,1.9,4.8,5.4,5.5c4.4,0.8,9.1,2,12.9,4.4c2.5,1.5,3.5,5.3,5.9,9.2c-66.3,0-130.8,0-196.3,0c6.3-4.8,11.6-9.6,19.9-7
	c4,1.2,7.6,0.4,10.5-3.4c5.7-7.5,13.4-9.2,22.2-5.9c1.4,0.5,2.8,1.1,4.3,1.4c5.4,1.2,8.2-0.6,10.2-5.9c1.3-3.5,2.6-7.3,4.9-10.1
	c2.7-3.3,6.7-4.3,11.3-2.9c7.1,2.1,11.3-0.4,13.7-7.5c0.2-0.6,0.5-1.2,0.6-1.9c2.6-12.3,10.3-18.5,23.5-19.1c2-0.2,3.4-0.2,5,0
	C388,2449.1,391.5,2449.5,395,2450z"/>
<path class="st39" d="M382,2435.9c6,0.1,12.1,0.1,18.5,0.2c0.4,0,0.4,0.2,0.5,0.6c0.1,3.1,0.1,5.8-0.3,8.5
	c-39.8,0.1-79.2,0.2-118.8,0.1c-0.7-0.2-1.2-0.2-1.6-0.3c-0.1-2.6-0.1-5.3,0.3-8.4c2.5-0.5,4.5-0.5,6.4-0.5
	C318.6,2436.1,350.3,2436,382,2435.9z"/>
<path class="st53" d="M307.7,2231c11.5,1.6,22.8,3.3,34.3,4.8c3.2,0.3,6.2,0.8,9.7,1.6c0.9,0.6,1.2,1.2,1.6,1.2
	c10.9,1.8,21.8,3.5,33.2,5.3c3.1,0.6,5.7,1.1,9.3,1.8c-8.1,3.8-15.3,7.4-23.7,4.7c-1.3-0.4-2.6-0.4-4-0.8c-4.1-1-8.2-1.7-12.3-2.3
	c-0.1,0.7-0.1,1.3-0.2,2c4.2,0.3,8.3,0.5,12.5,1c0.6,0.4,1.2,0.5,2,1c3.1,1.2,6,2,9.1,2.8c-3,7.2-5.9,14-8.8,20.9
	c-0.5-0.2-1.1-0.3-1.6-0.5c0.7-4,1.4-8.1,2.1-12.1c0.2-0.6,0.4-1.2,0.6-2.3c0-0.8-0.2-1-0.6-1.4c-0.5-0.8-0.9-1.4-1.4-1.5
	c-11.1-3.4-22.2-6.7-33.7-10.2c-5.8-1.9-11.3-3.7-16.7-5.4c0.1-0.6,0.3-1.1,0.4-1.7c2.2,0.3,4.5,0.6,7,1.1c4.8,1.3,9.3,2.4,13.9,3.6
	c0.5,0.1,0.8-0.1,1.2-0.2c-0.2-0.2-0.5-0.3-0.8-0.9c-4.6-1.7-9.1-3.1-14-4.6c-9.2-2.3-17.9-4.6-26.8-6.6c-1.8-0.4-3.8,0.3-5.7,0.3
	c-0.1-0.4-0.1-0.6-0.2-1.1c-0.9-0.1-1.8,0.1-2.8,0.6c-0.1,0.5,0,0.7-0.3,0.8c-0.7-0.2-1.1-0.2-1.5-0.6c-0.3-1.2-0.6-2-1.3-4.1
	c-0.5,1.9-0.7,2.6-1.2,3.3c-0.5-0.2-0.7-0.3-0.9-0.7c-0.6-0.5-1.2-0.6-1.8-0.8c1.4-0.7,2.9-2.1,4.3-1.9c4.6,0.4,9.2,1.3,14.5,2.2
	c1.9,0.3,3,0.4,4.1,0.5C307.1,2230.9,307.3,2231,307.7,2231 M348.3,2245.3c-0.3,0.4-0.5,0.8-0.8,1.2c0.4,0.1,0.8,0.3,1.2,0.4
	C348.8,2246.4,348.8,2246,348.3,2245.3 M343.8,2244.4c0,0.4-0.1,0.7-0.1,1.1c0.3,0,0.5,0,0.8,0
	C344.4,2245.1,344.4,2244.7,343.8,2244.4 M352.6,2247.3c-0.2-0.3-0.4-0.6-0.6-0.9c-0.2,0.2-0.4,0.4-0.6,0.5
	C351.7,2247.2,352,2247.4,352.6,2247.3z"/>
<path class="st17" d="M395.3,2449.7c-3.8-0.2-7.3-0.6-10.7-1.4c1.9-0.5,3.6-0.8,5.8-1.1c2.1,0,3.8,0,5.8,0.3
	c1.8,0.1,3.3-0.1,5.2-0.3c36.1,0,71.8,0,107.7,0.3c1,0.3,1.8,0.5,2.6,0.6c0,0,0.1,0.5-0.1,0.8c-0.2,0.4-0.4,0.6-0.3,0.6
	c0.1,0.2,0.3,0.3,0.4,0.5c0,41,0.1,82.1-0.1,123.7c-0.1,0.8,0,1.1,0.1,1.3c-0.7,0.4-1.4,0.8-2.4,1.2c0-2.1,0.5-4.2,0.5-6.3
	c0.1-38.5,0-77,0.1-115.5c0-3.3,0.1-5.6-4.6-5.5c-35.7,0.2-71.3,0.1-107,0.1C397.5,2449,396.6,2449.3,395.3,2449.7z"/>
<path class="st54" d="M409,2362c-1.2,1-2.2,2.5-3.6,2.8c-3.6,0.8-7.4,1.1-11,1.1c1.3-0.8,2.4-1,3.6-1.3c-2.7-0.4-5.4-0.6-8-0.4
	c-23.5,2.3-47,4.3-70.5,7.1c-6,0.7-8.6-1-10.7-6.2c-2.1-5.2-4.9-10.1-7.5-15.2c-0.3,0.1-0.7,0.3-1,0.4c-1.9,11-3.7,22.1-5.7,33.6
	c6.6-1.1,12.5-2.1,18.3-3.1c0,0.4,0,0.8,0,1.5c-6.7,1.6-13.4,3-20.8,4.4c0-3.5,0-6.3,0.5-9.6c0.8-2.9,1.1-5.2,1.7-7.7
	c1.8-8.3,3.4-16.3,5.1-24.8c5.7,0.4,11.2,0.7,16.6,1.2c0.7,0.1,1.3,1.4,1.5,2.1c-5.1-0.3-9.7-0.7-15.2-1.1
	c3.7,7.4,6.7,14.1,10.2,20.5c0.6,1.1,2.9,1.9,4.3,1.8c16.6-1.5,33.2-3.2,49.8-4.7c13.8-1.3,27.5-2.4,41.4-3.4
	C408.4,2361.6,408.7,2361.8,409,2362z"/>
<path class="st48" d="M509,2447.3c-35.7,0-71.4-0.1-107.9-0.2c-2.3,0-3.7,0.1-5.1,0.2c-1.7,0-3.4-0.1-6-0.1c-6.2,0-11.6,0.1-17,0.1
	c-1.4,0-2.8-0.1-5-0.2c-9.2-0.1-17.5-0.1-25.8-0.1c-20.4,0.1-40.8,0.2-61.2,0.2c-0.3-0.2-0.6-0.4-0.6-1c0.8-0.5,1.2-0.7,1.7-0.8
	c39.4,0,78.7-0.1,118.7-0.1c0.7,0,1.1,0,1.4,0.2c1.5,0.3,2.7,0.5,3.8,0.5c36,0,71.9,0,107.9,0c0,0,0,0.1,0,0.1s0,0.4,0,0.6
	c-0.2,0.3-0.3,0.3-0.8,0.4c-0.4,0-0.6,0-1.4,0C510.4,2447.1,509.7,2447.2,509,2447.3z"/>
<path class="st7" d="M372,2250.8c8.4,2.4,15.5-1.3,23.6-5c-3.5-0.6-6.2-1.1-9.3-2.1c-0.4-0.8-0.4-1.2-0.4-1.6
	c2.1,0.3,4.2,0.6,6.9,1.2c1,0.4,1.4,0.4,1.8,0.4c2,0.5,4,1,7,1.8c-6,2.5-11.3,4.4-16.2,7c-2.3,1.2-4.6,3.3-5.6,5.5
	c-4.1,8.7-7.6,17.7-11.9,26.6c-1.6-0.6-2.7-1.2-3.7-2.2c1.3-6.7,2.5-13.1,3.7-19.4c0,0,0,0,0.2,0.1c0.4-0.2,0.6-0.5,0.6-0.8
	c0.3-0.1,0.6-0.1,1.4,0c-0.2,4.3-0.9,8.3-1.6,12.3c0.5,0.2,1.1,0.3,1.6,0.5c2.9-6.8,5.8-13.7,8.8-20.9c-3.1-0.9-6-1.7-8.8-2.9
	C371,2250.7,371.5,2250.7,372,2250.8 M367.2,2278.4c-0.2,0.8-0.5,1.6-0.7,2.4c0.3,0.1,0.6,0.2,0.9,0.4c0.5-1,1-2.1,1.9-3.9
	c-0.2-0.5-0.3-1-0.5-1.5C368.4,2276.4,368,2277.1,367.2,2278.4z"/>
<path class="st44" d="M382.3,2370.4c0.5,0.6,1.6,1.6,1.6,2.7c0.1,19.6,0.1,39.3,0,58.9c0,0.6-0.5,1.1-1.2,1.9
	C382.4,2413,382.4,2391.9,382.3,2370.4z"/>
<path class="st16" d="M364.3,2282.8c1.1,0.6,2.1,1.2,3.5,2.1c-1.6,5.1-3.6,9.9-5.8,15.3c-9.5-6.3-18.4-12.2-27.2-18.6
	c0.3-0.8,0.5-1,1.1-1.1c8.3,5.4,16.3,10.7,24.8,16.2C362,2291.7,363.1,2287.2,364.3,2282.8z"/>
<path class="st31" d="M381.7,2435.7c-31.4,0.3-63,0.4-94.7,0.4c-2,0-4,0-6.4,0.1c-0.7-0.3-1-0.6-1.2-1c0.6-0.2,1.2-0.4,2.1-0.5
	c8.1,0.2,15.9,0.3,23.7,0.4C330.5,2435.3,356,2435.3,381.7,2435.7z"/>
<path class="st10" d="M294.1,2369.7c-0.3,2.3-0.7,4.6-1.3,7.1c-0.5-13.2-0.6-26.5-0.4-40.4c0.9-0.6,1.5-0.7,2.4-0.8
	c3.3,0.5,6.2,1,8.9,1.8c-0.6,0.5-1,0.8-1.8,1.1c-2.7-0.3-5-0.7-7.8-1.1C294.1,2348.5,294.1,2359.1,294.1,2369.7z"/>
<path class="st55" d="M307.7,2327.7c8.9,2.1,17.8,4.1,27.2,6.5c1,0.4,1.4,0.4,1.8,0.5c1.9,0.4,3.8,0.7,5.8,1.5
	c-0.3,0.7-0.7,1-1.5,1.3c-15.1-3.6-29.8-7.2-44.2-11.1c0.4-0.6,0.6-0.9,0.7-1.2c2.6,0.6,5.2,1.1,8.4,2
	C306.9,2327.6,307.3,2327.6,307.7,2327.7z"/>
<path class="st56" d="M281.3,2447.5c20.1-0.3,40.5-0.4,60.9-0.5c8.3,0,16.6,0,25.3,0.1c-0.8,0.3-2.1,0.8-3.3,0.8
	c-26.9,0-53.7,0-80.6,0C283,2448,282.3,2447.8,281.3,2447.5z"/>
<path class="st4" d="M385.6,2241.9c0.4,0.6,0.4,0.9,0.4,1.6c-10.9-1.4-21.8-3.2-32.8-4.9c-0.4-0.1-0.7-0.6-1.2-1.3
	c6.6,0.5,13.2,1.3,19.9,2.2C376.4,2240.2,380.8,2241,385.6,2241.9z"/>
<path class="st34" d="M382.9,2342.3c0.5,1.4,0.8,3,0.7,5.1c-7.8-1.6-15.2-3.5-22.6-5.8c0-0.6,0-1,0-1.4c5.4,1.4,10.7,3.1,16.2,4.1
	C378.8,2344.7,382.2,2347.1,382.9,2342.3z"/>
<path class="st15" d="M302.2,2392.1c7.8-1.5,15.1-3,22.5-4.4c0.1,0.6,0.2,1.1,0.3,1.7c-8.2,1.7-16.4,3.3-24.6,5
	c-0.1-0.3-0.2-0.6-0.4-0.9C300.7,2393,301.2,2392.6,302.2,2392.1z"/>
<path class="st43" d="M484.3,2282.1c-4.8,0.4-10.1,0.7-15.7,1.1c-8.5,0.3-16.7,0.4-25.3,0.5c1.1-0.6,2.7-1.7,4.3-1.7
	C459.6,2282,471.7,2282,484.3,2282.1z"/>
<path class="st24" d="M360.6,2340.1c0.4,0.5,0.4,0.9,0,1.6c-6.7-1.2-13-2.7-19.3-4.3c0.4-0.3,0.9-0.6,1.5-1.1
	C348.7,2337.4,354.5,2338.7,360.6,2340.1z"/>
<path class="st4" d="M311.7,2278.5c-1-0.8-1.7-1.3-2.5-1.9c0.3-0.4,0.5-0.8,0.8-1.2c5.4,3.3,10.7,6.6,16.1,9.9
	c-0.3,0.5-0.5,1-0.8,1.4C320.9,2284,316.4,2281.4,311.7,2278.5z"/>
<path class="st55" d="M280.8,2325.1c-1.4-0.8-2.8-1.6-4.2-2.4c0.5-0.7,0.9-1.4,1.4-2.1c2.1,0.4,4.2,0.8,6.9,1.6
	c1,0.4,1.4,0.4,1.8,0.5c3.4,0.7,6.7,1.5,10.4,2.3c0.2,0.4,0,0.7-0.8,1.3c-2.6-0.1-4.4-0.7-6.3-1c-2.3-0.3-4.6-0.3-7.2-0.4
	C281.9,2325,281.3,2325.1,280.8,2325.1z"/>
<path class="st15" d="M281,2325.4c0.4-0.3,0.9-0.3,2.1-0.3c4.3,3.6,7.8,7.1,11.4,10.5c-0.6,0.1-1.2,0.2-2.2,0.3
	C288.3,2332.6,284.7,2329.1,281,2325.4z"/>
<path class="st56" d="M373.3,2447.5c5.1-0.3,10.4-0.4,16.3-0.3c-1.3,0.4-3.1,0.6-5.3,0.9c-1.7,0-3.1,0-4.8,0
	C377.3,2448,375.4,2447.8,373.3,2447.5z"/>
<path class="st16" d="M322.4,2273.7c-0.9-0.6-1.8-1.1-2.6-2.2c0.3-0.7,0.5-1,1-1c1.1,0.7,1.9,1.3,2.4,2.2
	C322.8,2273.3,322.6,2273.5,322.4,2273.7z"/>
<path class="st16" d="M328.4,2277.7c-0.9-0.6-1.8-1.1-2.6-2.2c0.3-0.7,0.5-1,1-1c1.1,0.7,1.9,1.3,2.5,2.2
	C328.8,2277.2,328.6,2277.5,328.4,2277.7z"/>
<path class="st16" d="M325.6,2275.3c-1.1-0.2-2-0.7-3-1.4c0-0.4,0.2-0.7,0.9-1.1c1.4,0.4,2.2,0.9,3,1.5
	C326.4,2274.6,326.2,2274.8,325.6,2275.3z"/>
<path class="st16" d="M331.4,2279.7c-0.9-0.5-1.7-1-2.8-1.8c0-0.4,0.2-0.7,0.9-1.1c1.4,0.4,2.2,0.9,2.7,1.9
	C331.8,2279.2,331.6,2279.5,331.4,2279.7z"/>
<path class="st16" d="M319.6,2271.3c-1.2-0.2-2-0.7-2.8-1.8c0.3-0.7,0.5-1,1-1c1.1,0.7,1.9,1.3,2.7,1.9
	C320.4,2270.6,320.2,2270.8,319.6,2271.3z"/>
<path class="st16" d="M316.6,2269.3c-1.2-0.2-2-0.7-3-1.4c0-0.4,0.2-0.7,0.9-1.1c1.4,0.4,2.2,1,3,1.5
	C317.4,2268.6,317.2,2268.8,316.6,2269.3z"/>
<path class="st16" d="M334.6,2281.3c-1.2-0.2-2-0.7-3-1.4c0-0.4,0.2-0.7,1-1.1c1.4,0.4,2.2,0.9,3.1,1.5
	C335.4,2280.5,335.2,2280.8,334.6,2281.3z"/>
<path class="st57" d="M489.1,2615.6c-0.5,0.4-1,0.5-1.8,0.5c0.1-0.7,0.5-1.4,1.3-2.1C489,2614.4,489.1,2614.9,489.1,2615.6z"/>
<path class="st58" d="M281.8,2445.3c-0.2,0.3-0.6,0.5-1.3,0.7c-0.3-0.2-0.3-0.3-0.3-0.7C280.6,2445.1,281.1,2445.1,281.8,2445.3z"/>
<path class="st4" d="M394.5,2243.5c-0.2,0.2-0.6,0.2-1.2-0.1C393.4,2243.2,393.8,2243.2,394.5,2243.5z"/>
<path class="st15" d="M286.4,2322.4c-0.2,0.2-0.6,0.1-1.2-0.1C285.4,2322.1,285.8,2322.2,286.4,2322.4z"/>
<path class="st54" d="M315.4,2382.3c0-0.1,0.2-0.2,0.6-0.2C316,2382.3,315.8,2382.4,315.4,2382.3z"/>
<path class="st24" d="M336.4,2334.5c-0.2,0.2-0.6,0.1-1.2-0.1C335.4,2334.2,335.8,2334.2,336.4,2334.5z"/>
<path class="st15" d="M307.4,2327.5c-0.2,0.2-0.6,0.1-1.2-0.1C306.4,2327.2,306.8,2327.2,307.4,2327.5z"/>
<path class="st59" d="M664.9,2444.9c0,0-0.4,0.1-1.1,0.1c-34.1,0-67.5,0-100.9,0c-6.3,0-12.6,0.2-18.9,0.3c-8.6,0-17.3,0-26.7-0.1
	c-0.9-0.1-1.1-0.1-1.4-0.6c-0.2-3.5-0.4-6.6-0.5-9.6c0.1-1.8,0.4-3.6,0.4-5.4c0-25.5,0-51,0-76.4c0-2.2-0.3-4.3,0.1-6.8
	c11.5-0.2,22.5-0.1,33.5,0.1c0.5,3.9,0,8.2,1.6,11.5c2.8,5.6,9.7,7.3,15.1,4.9c6.1-2.7,8.6-8.6,7.2-16.2c3.1-0.5,5.9-0.5,8.9-0.2
	c6,0.1,11.6-0.1,17.8-0.3c5.8,0,11.2,0,16.9,0.3c14.3,0.5,28.3,0.6,42.3,0.8c1.9,0,3.8,0.6,5.7,1.4
	C664.9,2380.9,664.9,2412.9,664.9,2444.9z"/>
<path class="st49" d="M549.6,2346.1c-11.3,0.1-22.3-0.1-33.7-0.3c-3.3-26.5-16.5-45.6-40.8-56.8c-2.6-1.2-5.4-2-8-3.8
	c29,0,58,0,87.4,0c0.5,17.6,0.8,35.2,0.4,52.7C554.8,2340.7,551.6,2343.3,549.6,2346.1z"/>
<path class="st60" d="M407.9,2360.8c-13.8,1.2-27.5,2.3-41.3,3.6c-16.6,1.5-33.2,3.2-49.8,4.7c-1.4,0.1-3.7-0.7-4.3-1.8
	c-3.5-6.4-6.5-13-10.2-20.5c5.4,0.4,10.1,0.8,15.4,1.4c1.3,0.4,2,0.7,2.6,0.7c5,0.1,10.1,0.1,15.1,0.3c3.1,0.1,6.2,0.5,9.5,1.1
	c3.8,0.8,7.4,1.3,11,1.7c8.8,0.9,17.6,1.8,26.4,2.7c7.9,0.8,15.8,1.5,23.7,2.2c0.7,0.1,1.5,0.2,2.9,0.5c3.7,0.5,6.7,0.8,9.7,1.1
	c0,0.3,0,0.5-0.1,0.8C415,2359.8,411.5,2360.3,407.9,2360.8z"/>
<path class="st61" d="M313.4,2380.9c-6.3,1-12.1,2-18.7,3.1c2-11.5,3.8-22.6,5.7-33.6c0.3-0.1,0.7-0.3,1-0.4c2.5,5,5.4,9.9,7.5,15.2
	c2.1,5.2,4.8,6.9,10.7,6.2c23.4-2.8,47-4.9,70.5-7.1c2.6-0.3,5.3,0,8,0.4c-1.2,0.3-2.4,0.5-3.8,1c-24.5,4.7-48.6,9.2-72.8,13.7
	C318.9,2379.7,316.4,2380.3,313.4,2380.9z"/>
<path class="st62" d="M294.8,2335.6c-4-3.5-7.5-7-11.4-10.6c2,0,4.3,0,6.5,0.3c1.9,0.3,3.8,0.9,6.1,1.3c15.1,3.6,29.8,7.2,44.9,10.8
	c6.7,1.6,13,3.1,19.7,4.6c7.8,1.9,15.2,3.8,23,5.8c0.6,0,0.7,0.1,1.4,0.3c1.7,0.4,2.8,0.7,3.9,1.4c-0.9,0.5-1.8,0.7-2.7,0.7
	c-4-0.1-8.1-0.4-12.1-0.2c-0.1,0.6-0.1,0.8-0.3,1.3c-2.7,0-5.3-0.2-7.8-0.9c0.1-0.7,0.1-0.9,0.5-1.2c1.4,0.1,2.4,0.2,3.5,0.3
	c0.1-0.5,0.2-1,0.3-1.5c-3.4-0.6-6.9-1.2-10.7-2c-1.8-0.3-3.1-0.5-4.7-0.8c-0.8-0.1-1.3-0.2-2.3-0.3c-1.7-0.1-3,0-4.3-0.2
	c-8.4-1.4-16.9-3-25.7-4.6c-6.5-1.1-12.6-2-18.6-2.9C301.1,2336.6,298.2,2336.1,294.8,2335.6z"/>
<path class="st7" d="M366,2350.8c2.5,0.3,5.1,0.6,8.1,0.5c0.3-0.8,0.2-1.2,0-1.6c4,0.2,8.1,0.4,12.1,0.6c0.9,0,1.8-0.2,2.7-1
	c0-0.9,0-1.1,0-1.2c5,1.1,10,1.8,14.8,3.3c1.1,0.3,1.5,3.1,2.2,5.2c-7.9-0.3-15.8-1-23.7-1.8c-8.8-0.9-17.6-1.7-26.4-2.7
	c-3.6-0.4-7.2-0.9-10.8-2.1C352.1,2349.8,359,2350.3,366,2350.8 M399.5,2354.1c-0.2,0.1-0.5,0.3-0.7,0.4c0.2,0.1,0.6,0.4,0.7,0.4
	C399.7,2354.8,399.8,2354.4,399.5,2354.1z"/>
<path class="st25" d="M514.9,2435c0.6,3.1,0.7,6.1,0.9,9.8c0.1,0.7,0.1,1.1,0.1,1.1c-0.4,0-0.9,0-1.7,0c-0.3,0-0.4,0-0.4-0.3
	c-0.1-0.5-0.1-0.7-0.1-1.3c0-2.9,0-5.3,0-7.7c-1-0.3-1.4-0.6-1.9-0.6c-37,0-74.1,0.1-111.1,0.1c0,0,0-0.2,0.1-0.2
	c1.8-0.4,3.5-1,5.2-1C442.3,2435,478.4,2435,514.9,2435z"/>
<path class="st7" d="M408,2361.1c3.4-0.8,7-1.3,10.5-1.8c0-0.3,0-0.5,0.1-0.8c-3-0.3-6-0.6-9.3-1.1c4.6-2.9,8.9-0.4,13.3,0.6
	c0.1,0.7,0.1,1.4,0.2,2c-4.3,0.7-8.6,1.3-13.4,2C408.7,2361.8,408.4,2361.6,408,2361.1z"/>
<path class="st16" d="M388.8,2347.7c0.2,0.4,0.2,0.6,0.2,1.1c-1.1,0-2.2-0.3-3.6-0.8C386.2,2347.8,387.4,2347.6,388.8,2347.7z"/>
<path class="st63" d="M581.9,2345.9c-2.7,0-5.5,0.1-8.6,0.2c-2.3-2.1-4.2-4.3-6.1-7.2c0-18.4,0.1-35.9,0.1-53.5
	c15.5,0.5,31.2,0,46.6,1.9c14,1.7,25.5,9.8,34.9,20.4c0.9,1,1.9,1.8,3.1,2.5c0.3-0.3,0.3-0.2,0,0.1c0.9,1.8,2.1,3.3,3.3,4.7
	c0,0-0.1,0-0.2,0.4c1.8,3.4,3.6,6.6,5.4,9.7c1.2,3.1,2.4,6.2,3.6,10c0.4,1.9,0.7,3.2,0.8,4.8c-0.6,1.9-0.8,3.4-1.2,5.3
	c-14.1,0-28,0-41.9,0c-1.7,0-3.5,0.5-5.2,0.8c-5.4,0-10.8,0-16.9-0.3C593.2,2345.5,587.5,2345.7,581.9,2345.9z"/>
<path class="st2" d="M557,2247c2.4-0.3,4.8-0.5,7.8-0.3c0.7,10.7,0.8,21,0.9,31.2c-0.1,0.8-0.2,1.6-0.3,3.2
	c0,19.9,0.1,38.9,0.1,57.9c-2.6,0.1-5.1,0.1-8.1-0.4c-0.5-18.3-0.6-35.9-0.6-53.6c0.1-5.4,0.1-10.8,0.2-17.1
	C557,2260.4,557,2253.7,557,2247z"/>
<path class="st26" d="M565.8,2339c-0.2-19-0.2-38-0.1-57.5c0.6,0.8,1,2,1.5,3.6c0,17.9,0,35.5-0.2,53.5
	C566.6,2339,566.3,2339,565.8,2339z"/>
<path class="st26" d="M566.1,2277.8c-0.4-10-0.6-20.3-0.8-31c-0.1-0.5,0-0.5,0.1-0.5c0.5,0.4,1.4,0.8,1.4,1.1
	C566.8,2257.5,566.6,2267.5,566.1,2277.8z"/>
<path class="st64" d="M556.6,2285.3c0.3,17.4,0.4,35.1,0.4,53.2c-0.3,0.3-1,0.1-1-0.1C556.1,2320.9,556.2,2303.3,556.6,2285.3z"/>
<path class="st11" d="M556.7,2247.3c0.3,6.4,0.3,13.1,0.2,20.2C556.7,2261.2,556.6,2254.4,556.7,2247.3z"/>
<path class="st65" d="M260,2228.1c-0.6-0.4-1.3-0.9-1.9-1.7c0.1-0.6,0.2-0.7,0.4-0.8c8.3,2.5,16.5,5,25.5,7.7
	c17.2,5.2,33.8,10.2,50.7,15.4c10.2,3.2,20,6.2,29.8,9.3c1.3,0.4,2.4,1.4,3.5,2.1c-5.3,4.5-10.8,8.8-15.9,13.5
	c-2.4,2.2-4.1,2.1-6.8,0.6c-27-14.8-54.2-29.4-81.6-44.2c-0.4-0.1-0.4,0-0.6-0.3C261.9,2228.9,260.9,2228.5,260,2228.1z"/>
<path class="st66" d="M336,2280.5c-1.1-0.7-2-1.3-3-2c-1.1-0.7-1.9-1.3-3-2c-1.1-0.7-1.9-1.3-3-2c-1.1-0.7-1.9-1.3-3-2
	c-1.1-0.7-1.9-1.3-3-2c-1.1-0.7-1.9-1.3-3-2c-1.1-0.7-1.9-1.3-3-2c-13.7-9.1-27-18.1-40.4-27.1c0.1-0.2,0.2-0.4,0.3-0.6
	c1.6,0.7,3.2,1.2,4.7,2c22,11.9,43.9,23.7,65.8,35.7c3,1.6,4.9,1.7,7.4-0.7c4.7-4.4,9.8-8.5,15.1-12.8c-0.9,6.3-2.1,12.6-3.3,19.3
	c-1.2,4.9-2.3,9.3-3.6,14.3C352.3,2291.1,344.3,2285.9,336,2280.5z"/>
<path class="st9" d="M368.2,2260c-1.4-0.7-2.5-1.7-3.8-2.1c-9.8-3.1-19.7-6.1-29.5-9.5c0.4-0.7,0.7-1,1.1-1.4
	c11.1,3.3,22.3,6.7,33.4,10.1c0.5,0.2,0.9,0.8,1.1,1.6c-0.6,0.7-1.1,1-1.5,1.3C368.8,2260,368.7,2260,368.2,2260z"/>
<path class="st7" d="M369.5,2260c-0.1-0.3,0.3-0.6,1-1c0.6,0,0.8,0.2,0.7,0.7C370.8,2260,370.4,2260,369.5,2260z"/>
<path class="st66" d="M368.6,2262.3c0.2,0.3,0.1,0.6-0.4,0.8C368,2262.7,368.1,2262.5,368.6,2262.3z"/>
<path class="st4" d="M335.7,2246.9c0,0.5-0.4,0.8-1.1,1.3c-16.9-4.8-33.4-9.8-50.3-15c-0.3-0.4-0.3-0.7,0-1.2
	c0.7-0.5,1.1-0.7,1.5-0.9c0.2,0.1,0.4,0.2,1,0.6c1.1,0.5,1.8,0.7,2.4,0.9c0.4,0.1,0.8,0.1,1.8,0.3c1.4,0.1,2.2,0,2.9-0.1
	c1.9-0.2,4-1,5.7-0.6c8.9,2,17.6,4.3,26.7,6.8c0,0.8-0.3,1.2-0.5,1.6c-2.2-0.3-4.5-0.6-6.7-1c-0.1,0.6-0.3,1.1-0.4,1.7
	C324.4,2243.2,329.9,2245,335.7,2246.9 M311,2237.2c-2.8-0.5-5.5-1-8.3-1.5c-0.1,0.4-0.1,0.7-0.2,1.1c2.5,0.7,5,1.4,8.3,2.4
	c0.8-0.1,1.7-0.2,2.5-0.2C312.8,2238.5,312.3,2238,311,2237.2 M315,2239.5c0.2,0.1,0.4,0.3,0.6,0.4
	C315.6,2239.6,315.5,2239.3,315,2239.5z"/>
<path class="st4" d="M306.8,2230.5c-1,0.1-2.1,0-3.5-0.3C304.2,2230.1,305.4,2230.2,306.8,2230.5z"/>
<path class="st16" d="M260.1,2228.4c0.9,0.1,1.8,0.5,2.9,1.2C262.2,2229.5,261.2,2229.1,260.1,2228.4z"/>
<path class="st67" d="M285.9,2230.8c-0.4,0.5-0.9,0.7-1.5,0.8c-0.4-0.5-0.6-1.1-0.5-1.6C284.7,2230.1,285.3,2230.3,285.9,2230.8z"/>
<path class="st65" d="M257.9,2226.1c-0.7-0.2-1.2-0.5-1.7-0.9c0.6,0,1.1-0.1,1.9,0.1C258.3,2225.6,258.2,2225.8,257.9,2226.1z"/>
<path class="st68" d="M790.6,2589.2c-0.4,0.4-0.7,0.6-1,1c-0.4,0.4-0.7,0.6-1,1c-0.4,0.3-0.6,0.5-1,0.9c-0.6,0.5-1,0.9-1.6,1.5
	c-0.5,0.6-0.9,1-1.5,1.7c-0.3,7.3-0.6,14.4-0.7,21.5c-0.1,8.4,0,16.9,0.2,26c0.1,0.9,0.1,1.1,0.1,1.3c-0.1,15-0.2,30.1-0.5,45.1
	c0,1.7-0.6,3.4-1.8,5.1c-13.8,0.1-26.8,0.2-39.8,0.3c-0.2-0.1-0.4-0.1-0.9-0.8c-2.6-12.3,1.7-21,11.9-27c1.3-0.7,2.3-1.9,3.4-2.9
	c0.9-0.9,1.8-1.8,2.7-2.7c-0.3-0.3-0.6-0.6-0.9-0.9c-5.8,4.6-11.7,9.2-17.5,13.4c0-25.8,0-51.2,0.1-76.6c0-1.8,1-3.6,1.8-5.6
	c0.8-0.7,1.3-1.2,2.1-1.9c1.2-1,2.1-1.9,3.4-2.8c3.9-3.2,7.6-6.4,11.2-9.5c-0.5-0.5-0.9-0.9-1.4-1.4c-3.7,3.4-7.4,6.7-11.4,10.2
	c-1.1,1-2,1.8-3.1,2.8c-0.7,0.5-1.1,0.9-1.7,1.3c-0.5,0-0.7,0-0.9-0.5c-0.1-22.2-0.1-44,0-66.2c0.3-1.5,0.4-2.5,0.4-4
	c-0.2-22.7-0.1-44.9-0.3-67.1c0-3.5,0.8-6,3.8-8.2c1.5-1.2,2.7-2.4,4.2-3.7c3.7-3.1,7.1-6,10.5-8.9c-0.5-0.5-0.9-1-1.4-1.5
	c-3.4,3.1-6.9,6.3-10.6,9.5c-1.5,1.2-2.7,2.4-4.2,3.7c-4.2,1.8-2-1.8-2-2.4c-0.2-16.8-0.1-33.6-0.2-50.4c0-1.6-0.3-3.1-0.5-4.7
	c-0.5,0.1-1,0.1-1.6,0.2c0,19.5,0,39,0,59.7c-5.6-7.3-10.3-13.6-15-19.8c-0.4,0.2-0.7,0.5-1.1,0.7c0.6,1,1,2.2,1.7,3.1
	c3.7,5.1,7.8,10,11.2,15.3c1.7,2.6,3,5.9,3.1,9c0.3,22,0.2,43.9,0,66c-0.5,0.1-0.7,0-1-0.3c-4.7-6.4-9.3-12.6-13.9-18.7
	c-0.5,0.4-1,0.8-1.6,1.2c4.9,6.3,9.7,12.6,14.7,19.2c0.4,0.5,0.6,0.8,0.9,1.2c0.1,0.4,0.2,0.5,0.6,0.9c0.3,3.7,0.4,7,0.4,10.3
	c0.1,19,0.2,38.1,0.2,57.2c-0.2,0.2-0.4,0.3-0.8,0.1c-4.9-6.6-9.7-13-14.5-19.3c-0.5,0.4-0.9,0.7-1.4,1.1c5,6.5,9.9,13.1,15.1,20
	c0.6,2.4,1.3,4.5,1.3,6.5c0.1,24.9,0.1,49.7,0,74.8c-5.2-5.9-10.2-12.1-15.3-18.2c-0.4,0.3-0.8,0.6-1.2,0.9c2.3,3.1,4.3,6.6,7,9.3
	c7.6,7.8,11.3,16.9,9.4,27.8c-0.4,0.1-0.9,0.2-2.1,0.2c-12.8,0-24.8,0.1-36.9,0.2c0,0-0.5-0.1-0.7-0.2c-2.3-6.2-4.2-12.4-6.4-18.5
	c-3.4-9.3-2.5-18.3,1.9-27.1c1.9-3.9,3.7-7.8,5.6-11.7c4.3-8.8,4.9-17.9,1.6-27.1c-1.4-3.9-2.6-7.9-4.1-11.8
	c-4.3-10.6-3.8-21.2,2.3-30.7c10.2-15.8,11.2-31.8,3.6-48.9c-4.9-11.1-2.8-21.8,3.2-32c0.4-0.7,0.7-1.5,1.2-2.2
	c9.5-13.4,10.5-27.7,4.7-42.7c-4.9-12.9-3.6-25.1,4.9-35.9c9.1-11.6,12.9-24.9,15.2-39.1c0.8-4.9,2.1-9.8,3.8-14.4
	c0.9-2.3,3.3-4.1,5.1-6.1c1.7,2.2,4.3,4.2,4.9,6.7c1.8,6.9,3,14,3.9,21.1c1.5,11.3,5.1,21.6,12.4,30.6c1.8,2.2,3.2,4.6,4.7,7
	c5.2,8.3,7,17.1,4.5,26.8c-7.4,28.7-6.3,29.9,7.1,52.8c5.2,8.9,6.7,18.3,3.3,28.3c-1.1,3.2-1.8,6.4-2.9,9.6
	c-4.3,12.1-2.6,23.3,3.6,34.5c3.8,6.9,6.2,14.6,9.3,22.4c0.1,0.4,0,0.8,0,1s-0.3,0.4-0.4,0.6c-0.4,0.3-0.6,0.5-1,0.9
	C791.2,2588.6,790.9,2588.8,790.6,2589.2 M752,2513.1c1.3-1.1,2.6-2.3,4.4-3.8c1.2-0.6,2.5-1.2,3.7-1.7c-0.6-0.7-1.2-1.3-1.9-2
	c-1.2,1-2.4,2.1-4.2,3.4c-1.3,1.1-2.6,2.3-4.3,3.7c-0.7,0.7-1.4,1.3-2.7,2.3c-1.6,1.5-3.3,3.1-5.3,5.1c0.5,0.1,1.1,0.2,2.2,0
	c1.6-1.5,3.3-2.9,5.4-4.7C750,2514.7,750.7,2514,752,2513.1z"/>
<path class="st17" d="M665.1,2339.4c-0.3-1.3-0.7-2.5-0.9-4.2c1,0.5,2.5,1.2,2.7,2.1c0.6,3.7,1.1,7.5,1.1,11.3
	c0.1,30.9,0.1,61.7,0,92.6c0,1.8-0.7,3.7-1.5,5.6c-0.4-0.1-0.3-0.2-0.3-1.1c0.1-21.8,0.1-42.9,0.1-63.9c0-11.9-0.2-23.9-0.2-36.2
	C665.8,2343.3,665.4,2341.4,665.1,2339.4z"/>
<path class="st11" d="M660.3,2324.6c-1.8-2.7-3.6-5.8-5.3-9.3C656.8,2318,658.5,2321.1,660.3,2324.6z"/>
<path class="st11" d="M655.4,2314.7c-1.5-1.2-2.7-2.7-3.6-4.4C653.3,2311.4,654.5,2312.9,655.4,2314.7z"/>
<path class="st69" d="M647.5,2585c-0.4,0.6-0.9,0.7-1.9,1c-0.5-15.2-0.7-30.4-0.6-45.7c0-4-0.8-7.4-3.4-10.5
	c-3.3-3.8-6.1-8.1-9.1-12.1c0.5-0.4,0.9-0.7,1.4-1.1c3.5,4.6,6.9,9.1,11.3,14.9c0-16.3,0-31,0-45.8c0.4,0,0.9,0,1.3,0
	c0,14.6,0,29.2,0,45.4c5.3-4.5,9.4-8,13.4-11.4c0.4,0.4,0.7,0.9,1.1,1.3c-3.6,3.2-7.5,6.2-10.8,9.7c-1.6,1.7-3,4.4-3,6.7
	c-0.3,10-0.2,20-0.1,30C647.1,2573.1,647.2,2578.9,647.5,2585z"/>
<path class="st70" d="M644.9,2587.8c-0.3,0.3-0.6,0.5-0.9,0.9c-0.6,0.5-1,0.7-1.6,1.1c-3.3-4.7-6.5-9.5-10-15c2.2-0.3,4-0.6,5.8-0.9
	c0.1,0.3,0.2,0.5,0.3,0.8c-0.8,0.6-1.6,1.3-2.9,2.3c2.8,3.3,5.7,6.8,9,10.3C645,2587.3,645,2587.6,644.9,2587.8z"/>
<path class="st40" d="M636.6,2595.9c0.2,12,0.1,24.3-0.3,37c-0.7,0-1.4-0.3-1.4-0.6c0.4-11.8,0.9-23.7,1.3-35.5
	C636.2,2596.5,636.3,2596.4,636.6,2595.9z"/>
<path class="st1" d="M227.5,2801.7c0,0.2-0.2,0.6-0.5,0.7C226.9,2802.1,227.1,2802,227.5,2801.7z"/>
<path class="st70" d="M739.3,2694c1.5-11-2.2-20-9.8-27.8c-2.7-2.8-4.7-6.2-7-9.3c0.4-0.3,0.8-0.6,1.2-0.9
	c5,6.2,10.1,12.3,15.6,18.3c0.9-0.2,1.2-0.2,1.6-0.2c5.8-4.6,11.7-9.2,17.5-13.9c0.3,0.3,0.6,0.6,0.9,0.9c-0.9,0.9-1.8,1.8-2.7,2.7
	c-1.1,1-2.1,2.2-3.4,2.9c-10.2,6-14.5,14.7-12.2,26.9C740.5,2694,740,2694,739.3,2694z"/>
<path class="st71" d="M742.5,2694.7c12.6-0.3,25.6-0.4,39-0.3C768.9,2694.6,755.8,2694.8,742.5,2694.7z"/>
<path class="st51" d="M700.3,2694.6c11.7-0.3,23.7-0.4,36.2-0.3C724.9,2694.5,712.8,2694.7,700.3,2694.6z"/>
<path class="st71" d="M784.3,2644.1c-0.2-0.2-0.2-0.4-0.2-0.9c0-0.3,0.4-0.3,0.5-0.3c0.2,0.2,0.3,0.4,0.3,0.9
	C784.9,2644.1,784.5,2644.1,784.3,2644.1z"/>
<path class="st56" d="M509.2,2447.5c0.5-0.3,1.2-0.4,2.3-0.4c0.4,0,0.4,0.5,0.4,0.8C511,2447.9,510.2,2447.8,509.2,2447.5z"/>
<path class="st72" d="M511.9,2574.7c-0.2,0-0.3-0.3-0.2-0.6C511.8,2574.2,511.9,2574.3,511.9,2574.7z"/>
<path class="st72" d="M511.9,2449.7c-0.2,0.1-0.4-0.1-0.5-0.3c0-0.1,0.1-0.2,0.3-0.4C511.9,2449.2,511.9,2449.3,511.9,2449.7z"/>
<path class="st73" d="M514.1,2447.7c5.8-0.5,11.6-0.5,18.1-0.5c0,11.2,0,22-0.1,33.3c-5.7,0.5-11.4,0.5-17.5,0.6
	C514.1,2470.1,514.1,2459.1,514.1,2447.7z"/>
<path class="st5" d="M489.1,2730c-0.4-0.2-0.4-0.3-0.4-0.7c0.4-0.2,0.6-0.2,1.2-0.2c0.3,0,0.4,0.5,0.2,0.7
	C489.8,2730,489.6,2730,489.1,2730z"/>
<path class="st74" d="M544.3,2445.5c6-0.3,12.3-0.5,18.6-0.5c33.4,0,66.8,0,100.7,0.1c-0.8,0.3-2,0.8-3.3,0.8
	c-37.9,0-75.8,0-113.7,0C545.9,2446,545.3,2445.8,544.3,2445.5z"/>
<path class="st31" d="M666,2346c0.1,11.9,0.3,23.9,0.3,35.8c0,21.1,0,42.2-0.1,63.7c-0.4,0.2-0.7,0-1.1-0.4
	c-0.1-32.2-0.2-64.2-0.1-96.9C665.3,2347,665.7,2346.5,666,2346z"/>
<path class="st74" d="M516.2,2445.9c-0.2,0.1-0.2-0.4-0.3-0.6c0.2-0.2,0.4-0.2,0.9-0.1C516.9,2445.6,516.7,2445.7,516.2,2445.9z"/>
<path d="M693.3,2800.3c-0.9,1.2-1.5,2-2.5,3.5c-2.7-11,1.4-19.9,4.7-29.3C698.8,2783.4,696.3,2791.7,693.3,2800.3z"/>
<path class="st75" d="M400.9,2436.7c37-0.5,74-0.5,111.1-0.6c0.5,0,0.9,0.3,1.9,0.6c0,2.4,0,4.8-0.5,7.7
	c-34.9,0.5-69.2,0.5-103.6,0.5c-2.6,0-5.3,0.2-7.9,0.3c0,0-0.4,0-0.6-0.1C401,2442.5,401,2439.8,400.9,2436.7z"/>
<path class="st5" d="M326.4,2240.9c-0.1-0.6,0.2-1,0.5-1.6c4.6,1.1,9.2,2.5,13.5,4.2c-0.2,0.4-0.3,0.8-0.3,0.8
	C335.6,2243.3,331.2,2242.2,326.4,2240.9z"/>
<path class="st76" d="M368,2250c-4.2-0.3-8.3-0.5-12.5-0.8c0.1-0.7,0.1-1.3,0.2-2c4.1,0.7,8.2,1.3,12.3,2.4
	C368,2250,368,2250,368,2250z"/>
<path class="st76" d="M371.9,2250.4c-0.4,0.3-1,0.3-1.8,0.4c-0.9,0-1.5-0.2-2.1-0.6c0-0.3,0-0.3,0-0.3
	C369.3,2250,370.6,2250.1,371.9,2250.4z"/>
<path class="st67" d="M289.3,2232.3c-0.6,0.1-1.3-0.1-2-0.5c0.1-0.9,0.2-1.7,0.7-3.6C288.6,2230.3,288.9,2231.2,289.3,2232.3z"/>
<path class="st76" d="M348.6,2245.4c0.2,0.6,0.2,1,0.2,1.5c-0.4-0.1-0.8-0.3-1.2-0.4C347.8,2246.1,348.1,2245.7,348.6,2245.4z"/>
<path class="st76" d="M344.1,2244.4c0.3,0.4,0.3,0.7,0.4,1.1c-0.3,0-0.5,0-0.8,0C343.7,2245.1,343.8,2244.7,344.1,2244.4z"/>
<path class="st76" d="M352.4,2247.5c-0.5-0.1-0.7-0.3-1-0.5c0.2-0.2,0.4-0.4,0.6-0.5C352.2,2246.7,352.4,2247,352.4,2247.5z"/>
<path class="st67" d="M294.1,2232.7c-0.8,0.3-1.5,0.4-2.7,0.4c-0.4-0.3-0.4-0.4,0-0.9c1.1-0.3,1.8-0.3,2.5-0.3
	C294,2232.1,294,2232.2,294.1,2232.7z"/>
<path class="st36" d="M293.8,2231.6c-0.6,0.3-1.3,0.3-2.4,0.3C292,2231.7,292.9,2231.5,293.8,2231.6z"/>
<path class="st76" d="M340.2,2244.5c-0.2-0.2,0-0.6,0.2-0.6c0.5,0.1,0.7,0.3,0.9,0.4C341.1,2244.5,340.7,2244.6,340.2,2244.5z"/>
<path class="st56" d="M396.2,2447.5c1.1-0.3,2.6-0.4,4.4-0.3C399.5,2447.4,398,2447.5,396.2,2447.5z"/>
<path class="st77" d="M366.1,2350.4c-7-0.1-14-0.6-21.2-0.8c-3.2,0.1-6.3-0.3-9.4-0.4c-5-0.2-10.1-0.2-15.1-0.3
	c-0.6,0-1.3-0.3-2.2-0.7c-0.9-1-1.5-2.3-2.2-2.4c-5.5-0.5-10.9-0.8-16.6-1.2c-1.7,8.5-3.2,16.6-5.1,24.8c-0.3-10.4-0.3-21-0.3-32.1
	c2.9,0.4,5.1,0.8,8.2,1.3c7.4,1.2,14.1,2.2,21.1,3.3c10.1,1.7,19.8,3.2,29.8,4.8c0.8,0.1,1.3,0.2,2.2,0.3c1.7,0.3,3.1,0.5,4.7,0.8
	c2.2,0.5,4.2,0.9,6.1,1.3C366.2,2349.5,366.1,2349.7,366.1,2350.4z"/>
<path class="st58" d="M402.2,2445.5c2.3-0.3,4.9-0.5,7.6-0.5c34.4,0,68.7,0,103.5-0.1c0.5,0.1,0.5,0.3,0.6,0.8
	c-35.9,0.3-71.9,0.3-107.9,0.3C404.9,2446,403.7,2445.8,402.2,2445.5z"/>
<path class="st76" d="M368.9,2278c-0.5,1-1,2.1-1.5,3.1c-0.3-0.1-0.6-0.2-0.9-0.4c0.2-0.8,0.5-1.6,1.2-2.6
	C368.4,2278,368.6,2278,368.9,2278z"/>
<path class="st53" d="M369.1,2277.6c-0.4,0.4-0.6,0.4-1.2,0.3c0.1-0.7,0.5-1.5,0.9-2.2C369,2276.2,369.1,2276.7,369.1,2277.6z"/>
<path class="st4" d="M323,2341.9c-6.6-1-13.3-2-20.3-3.2c0-0.4,0.4-0.7,1-1.3c6.3,0.7,12.4,1.6,18.9,3
	C323,2341.1,323,2341.5,323,2341.9z"/>
<path class="st78" d="M666.1,2345.6c-0.4,0.9-0.7,1.4-1.1,2.1c-2,0-3.9-0.6-5.8-0.7c-14-0.2-28-0.3-42.3-0.8
	c1.4-0.6,3.1-1.2,4.9-1.2c13.9-0.1,27.8,0,41.9,0c0.3-1.8,0.6-3.4,1.2-5.3C665.4,2341.4,665.8,2343.3,666.1,2345.6z"/>
<path class="st78" d="M582.2,2346.3c5.4-0.5,11-0.7,17-0.7C593.8,2346.2,588.1,2346.4,582.2,2346.3z"/>
<path class="st6" d="M323.4,2342c-0.4-0.5-0.4-0.9-0.4-1.5c8.4,1.2,16.9,2.7,25.3,4.2c1.2,0.2,2.6,0.1,4.2,0.7
	c0.4,0.8,0.4,1.1,0.3,1.4C343.2,2345.2,333.5,2343.7,323.4,2342z"/>
<path class="st23" d="M366.6,2349.2c-2.3-0.3-4.2-0.7-6.4-1.7c-0.2-0.8-0.2-1.1-0.2-1.4c3.4,0.6,6.9,1.2,10.3,1.9
	c-0.1,0.5-0.2,1-0.3,1.5C369,2349.3,367.9,2349.2,366.6,2349.2z"/>
<path class="st6" d="M359.6,2346c0.4,0.4,0.4,0.7,0.3,1.4c-1.4,0.2-2.7,0.1-4.5-0.7c-0.4-0.8-0.3-1.1-0.3-1.4
	C356.5,2345.5,357.8,2345.7,359.6,2346z"/>
<path class="st23" d="M354.9,2345.2c0.2,0.4,0.2,0.7,0.2,1.4c-0.5,0.4-1.1,0.4-1.8,0.3c-0.2-0.4-0.2-0.7-0.2-1.4
	C353.5,2345,354.1,2345,354.9,2345.2z"/>
<path class="st77" d="M374.1,2350c0.2,0.1,0.4,0.5,0.2,0.9C374,2350.8,374,2350.5,374.1,2350z"/>
<path class="st16" d="M399.7,2354.1c0.1,0.3,0,0.7-0.2,0.8c-0.2,0.1-0.5-0.2-0.7-0.4C399,2354.4,399.2,2354.2,399.7,2354.1z"/>
<path class="st76" d="M310,2238.8c-2.5-0.7-5-1.4-7.5-2.1c0.1-0.4,0.1-0.7,0.2-1.1c2.8,0.5,5.5,1,8.3,1.9
	C310.7,2238.2,310.4,2238.5,310,2238.8z"/>
<path class="st53" d="M310.4,2239c0-0.5,0.3-0.8,1-1.2c0.8,0.3,1.4,0.7,1.9,1.1C312.5,2239,311.6,2239,310.4,2239z"/>
<path class="st53" d="M315.3,2239.3c0.3,0.1,0.3,0.4,0.4,0.6C315.4,2239.8,315.2,2239.6,315.3,2239.3z"/>
<path class="st47" d="M744.3,2444.4c-2.7,2.1-3.5,4.6-3.5,8.1c0.2,22.2,0.2,44.4,0,67.1c-0.7,0.4-1.3,0.4-1.8,0.4
	c0-22,0-43.9-0.3-65.9c0-3-1.4-6.4-3.1-9c-3.4-5.3-7.5-10.2-11.2-15.3c-0.7-0.9-1.2-2.1-1.7-3.1c0.4-0.2,0.7-0.5,1.1-0.7
	c4.7,6.2,9.5,12.5,15,19.8c0-20.7,0-40.2,0-59.7c0.5-0.1,1-0.1,1.6-0.2c0.2,1.6,0.5,3.1,0.5,4.7c0,16.8,0,33.6,0.2,50.4
	c0,0.6-2.2,4.2,2.3,2.7C744,2444,744.2,2444.2,744.3,2444.4z"/>
<path class="st79" d="M740.9,2673.6c-0.4,0.5-0.8,0.4-1.5,0.4c-0.3-24.9-0.4-49.7-0.5-74.6c0-2.1-0.7-4.1-1-6.8
	c0.3-0.8,0.5-1,0.6-1.2c0.2-0.1,0.4-0.2,1-0.4c0.7-0.1,1-0.1,1.5-0.1c0.5,0,0.7,0,1,0.2c0.1,0.2,0.4,0.5,0.4,0.5
	c-0.5,1.8-1.5,3.6-1.6,5.4C740.9,2622.4,740.9,2647.7,740.9,2673.6z"/>
<path d="M740.8,2591c-0.3,0-0.5,0-1.2,0c-0.5-19-0.6-38.1-0.7-57.1c0-3.3-0.2-6.6-0.1-10.3c0.7-0.1,1.2,0.2,1.8,0.4
	c0.1,21.8,0.1,43.5,0.2,65.9C740.9,2590.6,740.8,2591,740.8,2591z"/>
<path class="st70" d="M736.9,2521.1c-4.9-6.3-9.7-12.6-14.6-18.9c0.5-0.4,1-0.8,1.6-1.2c4.6,6.1,9.2,12.3,13.8,18.8
	c0.1,0.4,0,0.5-0.2,0.6C737.1,2520.7,737,2520.9,736.9,2521.1z"/>
<path class="st79" d="M737.7,2592.3c-5.3-6.3-10.2-12.8-15.2-19.4c0.5-0.4,0.9-0.7,1.4-1.1c4.8,6.3,9.5,12.7,14.5,19.3
	C738.4,2591.6,738.2,2591.8,737.7,2592.3z"/>
<path class="st70" d="M746.9,2586c3.7-3.4,7.4-6.7,11.2-10.1c0.5,0.5,0.9,0.9,1.4,1.4c-3.6,3.1-7.2,6.3-11.3,9.3
	C747.5,2586.2,747.2,2586.1,746.9,2586z"/>
<path class="st47" d="M747.7,2439.6c3.4-3.1,6.9-6.3,10.3-9.4c0.5,0.5,0.9,1,1.4,1.5c-3.4,2.9-6.8,5.8-10.7,8.6
	C748,2440,747.8,2439.8,747.7,2439.6z"/>
<path class="st70" d="M742.1,2519.6c1.6-1.5,3.3-3.1,5.5-4.5c0.8,0.3,1,0.4,1.2,0.6c-1.6,1.5-3.3,2.9-5.5,4.3
	C742.6,2519.8,742.4,2519.7,742.1,2519.6z"/>
<path class="st70" d="M740.8,2523.6c-0.7,0.1-1.3-0.1-2.2-0.4c-0.5,0-0.7-0.2-0.8-0.9c-0.1-1-0.1-1.4-0.2-1.9c0,0,0.1-0.1,0.2-0.2
	c0.2,0,0.4,0,0.9,0c0.8-0.1,1.3-0.1,2.2-0.1C741.2,2521.1,741.1,2522.1,740.8,2523.6z"/>
<path class="st47" d="M748.4,2440.5c-1,1.4-2.2,2.5-3.7,3.8c-0.4,0-0.6-0.2-1-0.7c1-1.4,2.2-2.5,3.7-3.8
	C747.8,2439.8,748,2440,748.4,2440.5z"/>
<path class="st70" d="M750.2,2512.4c1.3-1.1,2.6-2.3,4.4-3.3c0.8,0.3,1,0.4,1.2,0.6c-1.3,1.1-2.6,2.3-4.4,3.3
	C750.6,2512.7,750.4,2512.5,750.2,2512.4z"/>
<path class="st79" d="M746.6,2586.1c0.6,0,0.9,0.2,1.2,0.6c-0.8,1.1-1.7,1.9-3.1,2.6c-0.6-0.3-0.8-0.4-0.9-0.6
	C744.6,2587.9,745.5,2587.1,746.6,2586.1z"/>
<path class="st70" d="M754.9,2508.9c0.9-1.3,2.1-2.3,3.3-3.4c0.6,0.7,1.2,1.3,1.9,2c-1.2,0.6-2.5,1.2-4,1.9
	C755.6,2509.5,755.4,2509.3,754.9,2508.9z"/>
<path class="st70" d="M747.9,2514.9c0.4-0.9,1.1-1.6,2-2.4c0.4,0,0.6,0.2,1.1,0.6c-0.4,0.9-1.1,1.6-2.1,2.4
	C748.6,2515.5,748.4,2515.3,747.9,2514.9z"/>
<path class="st79" d="M742.1,2590.2c0.4-0.4,0.8-0.8,1.5-1.3c0.4,0.1,0.6,0.2,0.9,0.6c-0.3,0.8-0.9,1.3-1.7,2
	c-0.2,0.1-0.5-0.1-0.6-0.5C742,2590.6,742.1,2590.2,742.1,2590.2z"/>
<path d="M737.5,2520.4c0.3,0.4,0.3,0.9,0.4,1.7c-0.3,0.1-0.6-0.2-0.9-0.7C737,2520.9,737.1,2520.7,737.5,2520.4z"/>
<path class="st70" d="M743.1,2520.1c-0.3,0.1-0.8,0-1.1-0.3C742.4,2519.7,742.6,2519.8,743.1,2520.1z"/>
<path class="st70" d="M741.8,2590.2c0.3,0,0.3,0.4,0.2,0.6c-0.2,0.2-0.4,0.2-0.9,0.2c-0.3,0-0.3-0.4-0.2-0.6
	C741.1,2590.2,741.3,2590.2,741.8,2590.2z"/>
</svg>
