<?xml version="1.0" encoding="utf-8"?>
<!-- Generator: Adobe Illustrator 19.0.0, SVG Export Plug-In . SVG Version: 6.00 Build 0)  -->
<svg version="1.1" id="Layer_1" xmlns="http://www.w3.org/2000/svg" xmlns:xlink="http://www.w3.org/1999/xlink" x="0px" y="0px"
	 viewBox="0 2460 1000 82" style="enable-background:new 0 2460 1000 82;" xml:space="preserve">
<style type="text/css">
	.st0{fill:#1D2B53;}
	.st1{fill:#FF004D;}
	.st2{fill:#FF004C;}
</style>
<path class="st0" d="M460,2526c0-19.4,0-38.7,0.4-58.5c2.4-0.8,4.3-1.4,6.3-1.4c6.8-0.1,13.6-0.1,20.4,0c3.6,0,6.1-1.3,6.9-5
	c4.4,0,8.7,0,13.5,0.4c2,3.7,4.6,4.6,8.1,4.7c8.8,0.1,17.6,0.6,26.4,0.9c0,19.4,0,38.7-0.4,58.6c-8,0.8-15.6,1.1-23.3,1.5
	c-2,0.1-4,0.4-7.7,0.8c5.5,4.8,10.8,8.3,7.4,15.2c-11.4,0-22.7,0-34.5-0.4c-2.5-7,3.3-10.1,7.3-15.1c-3.4-0.2-5.5-0.4-7.6-0.5
	C475.5,2526.7,467.8,2526.3,460,2526 M500.5,2511c-3.8,0-7.7,0.1-11.5,0c-3.9-0.1-6.2-1.7-6.1-6.1c0.2-6.3-0.2-12.7,0.2-19
	c0.1-2,1.9-3.8,2.8-5.8c0.6-1.2,1.2-2.4,1.7-3.6c-1.1-0.5-2.2-1.4-3.4-1.4c-3.7-0.2-7.3,0-11-0.1c-3.2-0.1-4.5,1.1-4.4,4.4
	c0.1,9.3,0.1,18.7,0,28c-0.1,3.4,1,4.8,4.6,4.7c18.3-0.1,36.6-0.1,54.9,0c3.5,0,4.7-1.4,4.6-4.7c-0.2-6.2,0-12.3,0-18.5
	c0-14.3,0-14.3-14.4-13.8c-0.3,0-0.7-0.1-1,0c-1.1,0.5-2.3,1-3.4,1.5c0.6,1.2,1.1,2.4,1.7,3.6c1,1.9,2.7,3.8,2.8,5.8
	c0.4,6.3,0,12.7,0.2,19c0.1,4.4-2.2,6-6.1,6.1C509.2,2511,505.3,2511,500.5,2511 M497.5,2523c12.2,0,24.3,0,36.5,0
	c2.3,0,5,0.5,5-3.2c0-15.5,0.1-31-0.1-46.5c0-1.1-2-3.1-3.2-3.1c-6.9-0.3-13.9-0.1-20.8-0.1c5.3,1,10.6,1,15.9,1
	c4.1,0,6.5,1.6,6.4,6.3c-0.2,11.2-0.2,22.3,0,33.5c0.1,3.9-1.5,5.3-5.3,5.3c-20.5-0.1-41-0.1-61.5,0c-3.8,0-5.4-1.4-5.3-5.3
	c0.1-11,0-22,0.1-33c0-5.4,1.3-6.7,6.8-6.8c5.1-0.1,10.2,0,15.4,0c-6.4-1-12.9-0.9-19.3-1.1c-3.7-0.1-5,1.2-4.9,4.9
	c0.2,14.5,0.2,29,0,43.5c0,3.9,1.6,4.8,5.1,4.8C477.5,2522.9,487,2523,497.5,2523 M507.3,2507c2.5-0.1,5-0.3,8.8-0.5
	c-8.3-4.5-8.3-16.9-0.9-22.9c-9.7,0-18.9,0-28.9,0c7.8,5.5,7.9,18,0.9,23.4C493.6,2507,500,2507,507.3,2507 M489.5,2540
	c8.4,0,16.8,0,25.2,0c0-0.6,0-1.3,0-1.9c-8.7,0-17.4,0-26,0C488.6,2538.7,488.7,2539.3,489.5,2540 M497.5,2475.9
	c-1.2,3.4,0.7,4.4,3.5,3.9c1.4-0.2,2.5-1.7,3.8-2.6c-1.6-0.8-3.1-1.6-4.7-2.2C499.6,2474.9,498.8,2475.3,497.5,2475.9 M497.1,2529
	c3.6,0,7.2,0,10.8,0c0-0.5,0-0.9-0.1-1.4c-4.6,0-9.2,0-13.8,0c0,0.3,0,0.6-0.1,0.9C494.8,2528.6,495.5,2528.8,497.1,2529
	 M515.8,2500.3c0-3.4,0-6.8,0-10.3c-0.7,0.1-1.4,0.1-2.2,0.2C514.2,2493.8,514.8,2497.4,515.8,2500.3 M486,2498.6
	c0.2,0.7,0.3,1.4,0.5,2.1c0.3,0,0.5-0.1,0.8-0.1c0-3.5,0-7,0-10.5c-0.4,0-0.9,0-1.3,0C486,2492.7,486,2495.3,486,2498.6 M510,2476.1
	c-0.3-2.5-0.7-5-1-7.4c-0.4,0.1-0.9,0.2-1.3,0.2c0.2,3.4,0.5,6.7,0.7,10.1c0.4,0,0.7,0,1.1,0C509.6,2478.3,509.8,2477.6,510,2476.1
	 M492.2,2478.3c0.2,0.2,0.4,0.4,0.7,0.6c0.1,0.1,0.4,0,0.4,0c0.4-3.3,0.8-6.7,1.1-10c-0.6-0.1-1.1-0.1-1.7-0.2
	C492.5,2471.6,492.3,2474.6,492.2,2478.3 M502.7,2464.4c-2,0.3-4.1,0.5-6.1,0.8c0.1,0.3,0.1,0.7,0.2,1c2.8,0,5.6,0,8.4,0
	c0.1-0.2,0.1-0.4,0.2-0.6C504.7,2465.3,504,2465,502.7,2464.4z"/>
<path class="st1" d="M497.8,2518.1c2.8-0.1,5.1-0.1,7.9-0.1c-1.1,4.9-4.2,4.1-6.7,3.7C498.3,2521.7,497.9,2519.4,497.8,2518.1z"/>
<path class="st2" d="M505,2492c0.8,4.2-2.1,9.4-5.2,9.9c-0.7-1.5-1-3.3-2.1-4.6c-2.4-3-1.5-5.5,1.1-7.5
	C501.5,2487.7,503.3,2489.5,505,2492z"/>
</svg>
