<?xml version="1.0" encoding="utf-8"?>
<!-- Generator: Adobe Illustrator 19.0.0, SVG Export Plug-In . SVG Version: 6.00 Build 0)  -->
<svg version="1.1" id="Layer_1" xmlns="http://www.w3.org/2000/svg" xmlns:xlink="http://www.w3.org/1999/xlink" x="0px" y="0px"
	 viewBox="0 2460 1000 82" style="enable-background:new 0 2460 1000 82;" xml:space="preserve">
<style type="text/css">
	.st0{fill:#1D2A52;}
	.st1{fill:#FF004D;}
	.st2{fill:#1C2B53;}
</style>
<path class="st0" d="M460,2535c0-21.7,0-43.4,0.4-65.5c4.3-3.7,8.7-4.6,13.8-4.5c15.6,0.2,31.2,0.2,46.9,0c7.3-0.1,14.6-0.2,21,4
	c0,21.7,0,43.4-0.4,65.5c-4.3,3.7-8.7,4.6-13.8,4.5c-15.6-0.2-31.3-0.2-46.9,0C473.6,2539.1,466.4,2539.4,460,2535 M482.5,2535
	c16.2,0,32.3,0,48.5,0c5.8,0,7.9-2.1,8-7.8c0.1-11.5,0-23,0.1-34.5c0-3.3-1-4.8-4.6-4.8c-22.3,0.1-44.6,0.1-67,0
	c-3.1,0-4.6,0.8-4.6,4.2c0.1,11.8,0,23.7,0.1,35.5c0.1,5.1,2.3,7.1,7.5,7.3C474.2,2535.1,477.8,2535,482.5,2535 M486.5,2484
	c15.8,0,31.6,0,47.5-0.1c1.6,0,4.1-0.6,4.6-1.7c3.3-6.5-0.9-13.2-8.1-13.2c-19.2-0.1-38.3,0-57.5,0c-8.5,0-10.1,1.9-10.1,10.3
	c0,3.9,1.6,4.9,5.1,4.7C473.8,2483.9,479.7,2484,486.5,2484z"/>
<path class="st1" d="M497,2518.9c2.2-8.3,2-16.9,6.1-24.1c0.8,0.2,1.5,0.4,2.3,0.6c-2,9.4-3.9,18.9-6,28.3c-0.1,0.3-2,0.2-3.5,0.3
	C496.3,2522,496.7,2520.7,497,2518.9z"/>
<path class="st1" d="M519.3,2511.1c-3.6,3-6.9,5.7-10.2,8.5c-0.6-0.5-1.1-1.1-1.7-1.6c2.3-2.8,4.6-5.6,7.1-8.5
	c-0.3-3.8-7.5-3.3-6.2-8.8C513.2,2501.6,519.5,2507.4,519.3,2511.1z"/>
<path class="st1" d="M484.7,2513.2c-3.6-2.9-3.5-5.1,0.4-7.3c2.7-1.6,4.9-3.9,8-6.5c2.1,6.8-5.6,6.4-5.7,10.5
	c2.3,2.5,4.8,5.2,7.2,7.9c-0.5,0.6-1,1.1-1.5,1.7C490.4,2517.5,487.7,2515.5,484.7,2513.2z"/>
<path class="st2" d="M466.1,2479c-1.7-3.2-0.7-5.5,2-6.3c1.7-0.5,4.6,0.2,5.5,1.4c0.9,1.2,0.3,5.3-0.3,5.4
	C471.1,2480.1,468.6,2479.5,466.1,2479z"/>
<path class="st2" d="M479.1,2479.1c0.7-2.5,1.3-4.9,2.8-6.6c0.4-0.5,3.9,0.6,4.8,1.8c0.8,1.2,0.4,5,0,5
	C484.3,2479.7,481.8,2479.5,479.1,2479.1z"/>
<path class="st2" d="M499.3,2480c-2.5,0-4.7-0.3-6.9-0.5c0.3-2.1,0.1-4.8,1.3-6.2c0.8-0.9,4.9-0.8,5.4,0.1
	C500.1,2475.1,499.5,2477.6,499.3,2480z"/>
</svg>
