<?xml version="1.0" encoding="utf-8"?>
<!-- Generator: Adobe Illustrator 19.0.0, SVG Export Plug-In . SVG Version: 6.00 Build 0)  -->
<svg version="1.1" id="Layer_1" xmlns="http://www.w3.org/2000/svg" xmlns:xlink="http://www.w3.org/1999/xlink" x="0px" y="0px"
	 viewBox="0 2460 1000 82" style="enable-background:new 0 2460 1000 82;" xml:space="preserve">
<style type="text/css">
	.st0{fill:#1D2B53;}
	.st1{fill:#FF004C;}
	.st2{fill:#FF004D;}
</style>
<path class="st0" d="M542,2513c0,9.9,0,19.8,0,30c-7,0-14,0-21.5-0.5c-0.5-2.4-0.6-4.4-0.5-6.4c0.1-2.9-1-4.2-4-4.2
	c-3.1,0-4,1.4-4,4.2c0,2.3-0.6,4.5-0.9,6.8c-6.4,0-12.7,0-19.5-0.4c-0.8-2.5-1.4-4.6-1.4-6.8c0-2.7-1.1-3.8-3.9-3.9
	c-2.9,0-4.3,1-4.2,4c0.1,2.3,0,4.7,0,7c-7.3,0-14.5,0-22,0c0-9.7,0-19.4,0.4-29.5c3.2-1.5,8.3,2,8.4-4.1c0.1-4.1,2.2-4.5,5.4-4.5
	c6.8,0.1,13.6,0,20.5,0c2.4,0,4.2-0.3,4.3-3.4c0.1-3-0.7-4.7-4.1-4.6c-4.5,0.2-9,0-14.3,0c5.2-7.5,7.5-15.8,17.5-16.1
	c-5.7-4.5-7.6-8.9-5.5-13.7c1-2.3,2.9-4.2,4.5-6.3c2.4,0,4.7,0,7.6,0.4c7.5,8.6,7.4,13.1-0.4,19.6c9.8,0.4,12.2,8.5,17.1,16
	c-5.1,0-9.4,0.1-13.8,0c-3.1-0.1-4.6,0.9-4.5,4.3c0.1,3.3,1.8,3.8,4.5,3.8c6.7-0.1,13.3,0,20,0c2.7,0,4.7,0.7,4.6,3.8
	c-0.2,3.4,1.5,4.4,4.6,4.2C538.3,2512.9,540.2,2513,542,2513 M479.6,2509c-1.2,0-2.4-0.2-3.5,0.1c-1.4,0.4-2.6,1.3-3.8,2
	c1.3,0.6,2.7,1.9,3.9,1.8c4.7-0.4,6.3,1.6,5.8,6c-0.2,1.8,0.1,3.6,0,5.5c-0.1,2.9,1.4,3.6,4,3.7c2.7,0,4.1-0.9,4-3.7
	c-0.1-1.7,0.1-3.3,0-5c-0.3-4.1,0.7-6.8,5.6-6.5c1,0.1,2-1.1,3.1-1.7c-1.1-0.7-2.1-2-3.2-2.1C490.5,2508.9,485.6,2509,479.6,2509
	 M519,2527.5c0.3-2.6,1.1-5.1,1-7.7c-0.2-4.4,0.3-7.6,6-6.9c0.8,0.1,1.9-1.2,2.8-1.9c-1-0.6-1.9-1.8-2.9-1.8
	c-6.1-0.2-12.3-0.2-18.4,0c-1.3,0-2.7,1.2-4,1.8c1.3,0.7,2.5,2,3.8,2c3.7,0,5.2,1.6,4.9,5.1c-0.1,1.3,0.1,2.7,0,4
	C511.4,2526.8,513.2,2528.9,519,2527.5 M531.4,2517c-9.1,0.1-8.4-0.8-8.4,8.2c0,1.3,0,2.7,0,4c0.2,10.8-1.8,9.7,10.3,9.8
	c3.4,0.1,4.9-1,4.7-4.6c-0.2-4-0.3-8,0-11.9C538.4,2518.1,536.7,2516.4,531.4,2517 M479,2535.2c0-4.5-0.1-9,0.1-13.4
	c0.1-3.3-0.9-4.8-4.5-4.8c-12.6,0.2-10.3-1-10.6,10.1c0,0.8,0,1.7,0,2.5c0.2,10.4-1.5,9.4,9.7,9.4
	C475.9,2539,478.7,2539.7,479,2535.2 M494,2526.5c0,13.2,0,13.2,10.1,12.4c0.2,0,0.4,0.1,0.5,0c1.1-1.1,3.1-2.1,3.2-3.3
	c0.3-5.1,0.3-10.3,0.1-15.4c0-1-1-2.6-1.9-3c-7.2-2.9-12,0.3-12,7.8C494,2525.2,494,2525.4,494,2526.5 M499.8,2476.9
	c4.5,0.4,6.5-1.8,6.8-7.4c-4.1,0.2-7.8,0.4-11.5,0.5c-0.2,0.7-0.4,1.3-0.5,2C496.2,2473.6,497.6,2475.2,499.8,2476.9 M506.5,2485.3
	c-1,2.6-2,5.2-3.1,8c4,0,7.1,0,10.3,0c0.3-0.6,0.6-1.2,1-1.7C512.1,2489.5,509.7,2487.4,506.5,2485.3 M498,2492.7
	c-0.5-2.4-1-4.8-1.6-7.6c-4.8,1-7.4,3.4-8.3,9C491.7,2493.8,494.8,2493.6,498,2492.7z"/>
<path class="st1" d="M533.7,2527c-2.3,0-4.1,0.3-5.8-0.1c-1.2-0.3-2.2-1.6-3.3-2.4c0.3-0.4,0.6-0.8,0.8-1.2c3.2,0,6.5,0,11.1,0
	C535.6,2524.8,534.9,2525.9,533.7,2527z"/>
<path class="st2" d="M525,2530c3.3-0.9,6.6-1.5,9.9-1.8c0.4,0,0.9,1.9,2.1,4.6C532.1,2531.9,528.5,2531.2,525,2530z"/>
<path class="st2" d="M534.6,2536.9c-2.8,0-5.1,0.2-7.3,0c-0.8-0.1-1.4-0.8-2.2-1.3c0.8-0.6,1.5-1.5,2.3-1.6c2.1-0.2,4.3-0.1,6.4-0.1
	C536,2534.1,537,2534.9,534.6,2536.9z"/>
<path class="st1" d="M466.5,2526.6c-0.8-2.3-0.6-3.8,2.1-3.6c2,0.1,4-0.3,5.9,0.1c1.1,0.3,2,1.6,3,2.5c-0.3,0.4-0.6,0.8-0.9,1.3
	C473.4,2526.9,470.2,2526.9,466.5,2526.6z"/>
<path class="st2" d="M470.1,2532c-3.1,0.2-5.2-0.2-3.6-3.6c9.6-1,10-0.9,10.4,3.6C474.7,2532,472.7,2532,470.1,2532z"/>
<path class="st2" d="M469.2,2534c0.6,0,0.8,0,0.9,0c2.2,0.4,4.5,0.8,6.7,1.2c-0.2,0.5-0.5,1.6-0.7,1.6c-3.2,0-6.5,0-9.7-0.2
	c-0.1,0-0.5-1.5-0.3-1.6C467,2534.4,467.9,2534.3,469.2,2534z"/>
<path class="st1" d="M495.3,2524.4c3.6-0.7,6.9-1.1,10.3-1.2c0.5,0,1.1,2,2,3.8c-4.1,0-7.2,0.1-10.3-0.1
	C496.5,2526.8,495.8,2525.5,495.3,2524.4z"/>
<path class="st2" d="M506.7,2529.4c-0.5,1.1-1.2,2.4-2,2.5c-3.1,0.2-6.2,0.1-9.4,0.1C495.9,2527.6,500.1,2526.6,506.7,2529.4z"/>
<path class="st2" d="M504.7,2537c-2.9,0-5.4,0.1-7.9-0.1c-0.6,0-1.2-0.8-1.7-1.2c0.6-0.6,1.1-1.6,1.8-1.6c2.8-0.2,5.6-0.1,8.4,0
	c0.6,0,1.1,0.8,1.7,1.2C506.3,2535.9,505.7,2536.4,504.7,2537z"/>
</svg>
